<svg xmlns="http://www.w3.org/2000/svg" xmlns:xlink="http://www.w3.org/1999/xlink" viewBox="0 0 28.18 28.18"><defs><style>.cls-1,.cls-5{fill:none;}.cls-2{clip-path:url(#clip-path);}.cls-3{fill:#b4d8d1;}.cls-4{fill:#fff;}.cls-5{stroke:#b4d8d1;stroke-linecap:round;stroke-linejoin:round;stroke-width:0.44px;}</style><clipPath id="clip-path" transform="translate(0 0)"><rect class="cls-1" width="28.18" height="28.18"/></clipPath></defs><title>Recurso 1</title><g id="Capa_2" data-name="Capa 2"><g id="Capa_1-2" data-name="Capa 1"><g class="cls-2"><path class="cls-3" d="M28.18,14.09A14.09,14.09,0,1,1,14.09,0,14.08,14.08,0,0,1,28.18,14.09" transform="translate(0 0)"/><path class="cls-4" d="M19.86,15.08v6a2.21,2.21,0,0,1-2.2,2.2H10.52A2.2,2.2,0,0,1,8.33,21v-6a2.2,2.2,0,0,1,2.19-2.2h7.14a2.21,2.21,0,0,1,2.2,2.2" transform="translate(0 0)"/><rect class="cls-5" x="8.33" y="12.88" width="11.53" height="10.36" rx="2.2"/><path class="cls-4" d="M15.77,12.87V8.39a1.68,1.68,0,1,0-3.36,0v4.48H10.65V8.39a3.44,3.44,0,0,1,6.88,0v4.48Z" transform="translate(0 0)"/><path class="cls-5" d="M15.77,12.87V8.39a1.68,1.68,0,1,0-3.36,0v4.48H10.65V8.39a3.44,3.44,0,0,1,6.88,0v4.48Z" transform="translate(0 0)"/><path class="cls-4" d="M14.62,17.89l.28,1.78H13.28l.28-1.78a1.11,1.11,0,0,1-.56-1,1.09,1.09,0,1,1,1.62,1" transform="translate(0 0)"/><path class="cls-5" d="M14.62,17.89l.28,1.78H13.28l.28-1.78a1.11,1.11,0,0,1-.56-1,1.09,1.09,0,1,1,1.62,1Z" transform="translate(0 0)"/></g></g></g></svg>