<svg xmlns="http://www.w3.org/2000/svg" xmlns:xlink="http://www.w3.org/1999/xlink" viewBox="0 0 74.54 74.54"><defs><style>.cls-1,.cls-4{fill:none;}.cls-2{clip-path:url(#clip-path);}.cls-3{fill:#b4d8d1;}.cls-4{stroke:#fff;stroke-linecap:round;stroke-linejoin:round;stroke-width:1.16px;}</style><clipPath id="clip-path" transform="translate(0 0)"><rect class="cls-1" width="74.54" height="74.54"/></clipPath></defs><title>Recurso 13</title><g id="Capa_2" data-name="Capa 2"><g id="Capa_1-2" data-name="Capa 1"><g class="cls-2"><path class="cls-3" d="M74.54,37.27A37.27,37.27,0,1,1,37.27,0,37.27,37.27,0,0,1,74.54,37.27" transform="translate(0 0)"/><path class="cls-4" d="M38.67,47.31l.75,4.7H35.13l.74-4.7a2.89,2.89,0,0,1,1.41-5.42,2.88,2.88,0,0,1,2.88,2.89A2.91,2.91,0,0,1,38.67,47.31Zm3-13.28V22.18a4.45,4.45,0,1,0-8.9,0V34m-4.64,0V22.18a9.09,9.09,0,1,1,18.18,0V34m6.16,5.85V55.65a5.83,5.83,0,0,1-5.81,5.81H27.84A5.83,5.83,0,0,1,22,55.65V39.88a5.83,5.83,0,0,1,5.81-5.81H46.71A5.83,5.83,0,0,1,52.52,39.88Z" transform="translate(0 0)"/></g></g></g></svg>