<svg xmlns="http://www.w3.org/2000/svg" xmlns:xlink="http://www.w3.org/1999/xlink" viewBox="0 0 28.18 28.18"><defs><style>.cls-1,.cls-4,.cls-6{fill:none;}.cls-2{clip-path:url(#clip-path);}.cls-3{fill:#8a8a89;}.cls-4{stroke:#fff;}.cls-4,.cls-6{stroke-linecap:round;stroke-linejoin:round;stroke-width:0.44px;}.cls-5{fill:#fff;}.cls-6{stroke:#8a8a89;}</style><clipPath id="clip-path" transform="translate(0 0)"><rect class="cls-1" width="28.18" height="28.18"/></clipPath></defs><title>Recurso 11</title><g id="Capa_2" data-name="Capa 2"><g id="Capa_1-2" data-name="Capa 1"><g class="cls-2"><path class="cls-3" d="M28.18,14.09A14.09,14.09,0,1,1,14.09,0,14.08,14.08,0,0,1,28.18,14.09" transform="translate(0 0)"/><path class="cls-4" d="M9.69,7.77a10.25,10.25,0,0,1,1-2.21,10.89,10.89,0,0,0,2.41,2.73C14.19,9,17,10.5,17,10.5" transform="translate(0 0)"/><path class="cls-5" d="M23.71,12.32a3,3,0,0,0-1.77,1.54c-.6,1.22-2.14,5.58-4,7a8.69,8.69,0,0,1-5.18,1.74,9.63,9.63,0,0,1-5.16-1.39,9.13,9.13,0,0,1-3.18-3.79s1.86-.19,2.69-.31,2-.41,2-.41a9.7,9.7,0,0,1-2.74-3.35c-1.26-2.76.2-6.67.2-6.67.27,1.23,2.44,2.39,3.67,2.88A53.24,53.24,0,0,1,15.77,12a3.38,3.38,0,0,1,.8.8s1.65-2.22,3.47-2.34a3.59,3.59,0,0,1,3.67,1.9" transform="translate(0 0)"/><path class="cls-6" d="M23.71,12.32a3,3,0,0,0-1.77,1.54c-.6,1.22-2.14,5.58-4,7a8.69,8.69,0,0,1-5.18,1.74,9.63,9.63,0,0,1-5.16-1.39,9.13,9.13,0,0,1-3.18-3.79s1.86-.19,2.69-.31,2-.41,2-.41a9.7,9.7,0,0,1-2.74-3.35c-1.26-2.76.2-6.67.2-6.67.27,1.23,2.44,2.39,3.67,2.88A53.24,53.24,0,0,1,15.77,12a3.38,3.38,0,0,1,.8.8s1.65-2.22,3.47-2.34A3.59,3.59,0,0,1,23.71,12.32Z" transform="translate(0 0)"/><path class="cls-6" d="M17.19,13.89A4.58,4.58,0,0,0,15.77,12a53.24,53.24,0,0,0-5.49-2.37C9.05,9.1,6.88,7.94,6.61,6.7c0,0-1.47,3.92-.2,6.68a11.36,11.36,0,0,0,4.34,4.47" transform="translate(0 0)"/><path class="cls-3" d="M21.47,11.89a.43.43,0,1,1-.43-.43.42.42,0,0,1,.43.43" transform="translate(0 0)"/></g></g></g></svg>