<svg xmlns="http://www.w3.org/2000/svg" xmlns:xlink="http://www.w3.org/1999/xlink" viewBox="0 0 74.54 74.54"><defs><style>.cls-1,.cls-4{fill:none;}.cls-2{clip-path:url(#clip-path);}.cls-3{fill:#8a8a89;}.cls-4{stroke:#fff;stroke-linecap:round;stroke-linejoin:round;stroke-width:1.16px;}.cls-5{fill:#fff;}</style><clipPath id="clip-path" transform="translate(0 0)"><rect class="cls-1" width="74.54" height="74.54"/></clipPath></defs><title>Recurso 22</title><g id="Capa_2" data-name="Capa 2"><g id="Capa_1-2" data-name="Capa 1"><g class="cls-2"><path class="cls-3" d="M74.54,37.27A37.27,37.27,0,1,1,37.27,0,37.27,37.27,0,0,1,74.54,37.27" transform="translate(0 0)"/><path class="cls-4" d="M43.91,33.61s4.28-5.74,9.09-6.06,7.62,1.57,9.71,5A8,8,0,0,0,58,36.64c-1.57,3.24-5.64,14.77-10.45,18.6a22.84,22.84,0,0,1-13.69,4.6c-4.62.07-10.12-1.29-13.64-3.67-3.19-2.16-7.36-6.68-8.4-10,0,0,4.91-.52,7.1-.84s5.12-1,5.12-1m21.42-7.52s-1.36-3.56-3.76-5.12-11.31-5-14.52-6.27-9-4.36-9.72-7.63c0,0-3.87,10.34-.52,17.66S28.44,47.2,28.44,47.2M25.62,20.55s1.88-5.43,2.61-5.85c0,0,3.45,5.43,6.38,7.21s10.44,5.85,10.44,5.85" transform="translate(0 0)"/><path class="cls-5" d="M56.78,31.44a1.13,1.13,0,1,1-1.13-1.14,1.14,1.14,0,0,1,1.13,1.14" transform="translate(0 0)"/></g></g></g></svg>