<svg xmlns="http://www.w3.org/2000/svg" xmlns:xlink="http://www.w3.org/1999/xlink" viewBox="0 0 28.62 28.62"><defs><style>.cls-1,.cls-5,.cls-6{fill:none;}.cls-2{clip-path:url(#clip-path);}.cls-3{fill:#75823c;}.cls-4{fill:#fff;}.cls-5,.cls-6{stroke:#75823c;stroke-width:0.44px;}.cls-5{stroke-linecap:round;stroke-linejoin:round;}.cls-6{stroke-miterlimit:10;}</style><clipPath id="clip-path" transform="translate(0 0)"><rect class="cls-1" width="28.62" height="28.62"/></clipPath></defs><title>Recurso 12</title><g id="Capa_2" data-name="Capa 2"><g id="Capa_1-2" data-name="Capa 1"><g class="cls-2"><path class="cls-3" d="M28.4,14.31A14.09,14.09,0,1,1,14.31.22,14.08,14.08,0,0,1,28.4,14.31" transform="translate(0 0)"/><path class="cls-3" d="M28.4,14.31v.33a14.32,14.32,0,0,1-.55,3.61,13.53,13.53,0,0,1-.6,1.65A13.73,13.73,0,0,1,26.1,22c-.23.35-.46.67-.72,1a14.66,14.66,0,0,1-2.54,2.5,14.08,14.08,0,0,1-8.53,2.86,14.42,14.42,0,0,1-3-.32,13.87,13.87,0,0,1-3.89-1.49,14.13,14.13,0,0,1-2.93-2.2,14.39,14.39,0,0,1-2.22-2.81,13.45,13.45,0,0,1-1.09-2.22A13.87,13.87,0,0,1,.29,15.7a12.68,12.68,0,0,1-.07-1.39,14.12,14.12,0,0,1,.17-2.17,13.64,13.64,0,0,1,1-3.49A14.1,14.1,0,0,1,28,11.09a14.32,14.32,0,0,1,.36,3.22" transform="translate(0 0)"/><path class="cls-4" d="M28.4,14.31v.32a14.32,14.32,0,0,1-.55,3.61,13,13,0,0,1-.6,1.65A14.3,14.3,0,0,1,26.1,22c-.23.34-.46.67-.72,1a14.66,14.66,0,0,1-2.54,2.5,14.22,14.22,0,0,1-3.27,1.85,13.92,13.92,0,0,1-5.26,1,14.42,14.42,0,0,1-3-.33,13.76,13.76,0,0,1-3.89-1.49,14.09,14.09,0,0,1-2.93-2.19,14.45,14.45,0,0,1-2.22-2.82,13.75,13.75,0,0,1-1.09-2.21A14.06,14.06,0,0,1,.29,15.7a12.81,12.81,0,0,1-.07-1.39,14.15,14.15,0,0,1,.17-2.18,13.76,13.76,0,0,1,1-3.49,44.35,44.35,0,0,1,15.93,4.5A44.58,44.58,0,0,1,28,11.08a13.79,13.79,0,0,1,.37,3.23" transform="translate(0 0)"/><path class="cls-5" d="M11.28,28.08a33.9,33.9,0,0,1,13.29-5.77c.5-.11,1-.19,1.53-.27M7.39,26.59a36.55,36.55,0,0,1,5.46-3.73A36,36,0,0,1,16.75,21,36.32,36.32,0,0,1,21,19.49a37.3,37.3,0,0,1,4.63-1c.73-.11,1.46-.2,2.21-.26M4.46,24.39a40.95,40.95,0,0,1,8.31-5.51,40.67,40.67,0,0,1,8.92-3.24,40.22,40.22,0,0,1,6.71-1M2.24,21.58c.69-.59,1.4-1.16,2.13-1.7A45.1,45.1,0,0,1,12.67,15a43.81,43.81,0,0,1,4.67-1.81A44.58,44.58,0,0,1,28,11.09M1.15,19.36a30.87,30.87,0,0,1,3.22.52c-.73.54-1.44,1.11-2.13,1.7M.29,15.7a37.05,37.05,0,0,1,8.06,1.52,44.45,44.45,0,0,0-4,2.66c-.73.54-1.44,1.11-2.13,1.7M.39,12.14A40.82,40.82,0,0,1,12.67,15a45.1,45.1,0,0,0-8.3,4.92c-.73.54-1.44,1.11-2.13,1.7M1.41,8.65a44.35,44.35,0,0,1,15.93,4.5,44.05,44.05,0,0,0-9,4.07,44.45,44.45,0,0,0-4,2.66c-.73.54-1.44,1.11-2.13,1.7" transform="translate(0 0)"/><path class="cls-4" d="M18.85,6.5A2.85,2.85,0,1,1,16,3.65,2.85,2.85,0,0,1,18.85,6.5" transform="translate(0 0)"/><path class="cls-6" d="M28.4,14.31v.33a14.32,14.32,0,0,1-.55,3.61,13.53,13.53,0,0,1-.6,1.65A13.73,13.73,0,0,1,26.1,22c-.23.35-.46.67-.72,1a14.66,14.66,0,0,1-2.54,2.5,14.08,14.08,0,0,1-8.53,2.86,14.42,14.42,0,0,1-3-.32,13.87,13.87,0,0,1-3.89-1.49,14.13,14.13,0,0,1-2.93-2.2,14.39,14.39,0,0,1-2.22-2.81,13.45,13.45,0,0,1-1.09-2.22A13.87,13.87,0,0,1,.29,15.7a12.68,12.68,0,0,1-.07-1.39,14.12,14.12,0,0,1,.17-2.17,13.64,13.64,0,0,1,1-3.49A14.1,14.1,0,0,1,28,11.09,14.32,14.32,0,0,1,28.4,14.31Z" transform="translate(0 0)"/></g></g></g></svg>