<svg xmlns="http://www.w3.org/2000/svg" xmlns:xlink="http://www.w3.org/1999/xlink" viewBox="0 0 75.7 75.7"><defs><style>.cls-1,.cls-4,.cls-5{fill:none;}.cls-2{clip-path:url(#clip-path);}.cls-3{fill:#75823c;}.cls-4{stroke:#fff;stroke-linecap:round;stroke-linejoin:round;}.cls-4,.cls-5{stroke-width:1.16px;}.cls-5{stroke:#75823c;stroke-miterlimit:10;}</style><clipPath id="clip-path" transform="translate(0 0)"><rect class="cls-1" width="75.7" height="75.7"/></clipPath></defs><title>Recurso 14</title><g id="Capa_2" data-name="Capa 2"><g id="Capa_1-2" data-name="Capa 1"><g class="cls-2"><path class="cls-3" d="M75.12,37.85A37.27,37.27,0,1,1,37.85.58,37.26,37.26,0,0,1,75.12,37.85" transform="translate(0 0)"/><path class="cls-3" d="M75.12,37.86c0,.28,0,.57,0,.85a37.27,37.27,0,0,1-1.46,9.56,36.47,36.47,0,0,1-1.57,4.36A37.28,37.28,0,0,1,69,58.3c-.59.9-1.22,1.77-1.89,2.62a37.15,37.15,0,0,1-29.27,14.2,37.75,37.75,0,0,1-8-.86,37.38,37.38,0,0,1-18-9.75,37.77,37.77,0,0,1-5.89-7.43A38.89,38.89,0,0,1,3,51.21,36.75,36.75,0,0,1,.77,41.53a34.29,34.29,0,0,1-.19-3.67A37.86,37.86,0,0,1,1,32.09a36.73,36.73,0,0,1,2.7-9.22,37.26,37.26,0,0,1,71.4,15" transform="translate(0 0)"/><path class="cls-4" d="M49.85,14.54A7.53,7.53,0,1,1,42.32,7,7.53,7.53,0,0,1,49.85,14.54Zm-20,59.72a89.58,89.58,0,0,1,13.68-8.14A86.5,86.5,0,0,1,53.79,62,89.52,89.52,0,0,1,65,59c1.32-.26,2.67-.5,4-.69m-49.49,12A99.41,99.41,0,0,1,34,60.47a99.08,99.08,0,0,1,21.59-8.91A95.19,95.19,0,0,1,67.8,49q2.9-.44,5.85-.68M11.79,64.51a108.37,108.37,0,0,1,22-14.58A103.39,103.39,0,0,1,45.09,45a104.88,104.88,0,0,1,12.28-3.69,107.93,107.93,0,0,1,17.74-2.64M5.91,57.08c1.84-1.56,3.72-3.07,5.65-4.51a118.85,118.85,0,0,1,10.52-7,113.43,113.43,0,0,1,11.42-6,115.36,115.36,0,0,1,12.36-4.8,117.15,117.15,0,0,1,28.29-5.45M3,51.21a85,85,0,0,1,8.52,1.36c-1.93,1.44-3.81,3-5.65,4.51M.77,41.53a98.75,98.75,0,0,1,21.31,4,118.85,118.85,0,0,0-10.52,7c-1.93,1.44-3.81,3-5.65,4.51M1,32.09A108.12,108.12,0,0,1,33.5,39.58a113.43,113.43,0,0,0-11.42,6,118.85,118.85,0,0,0-10.52,7c-1.93,1.44-3.81,3-5.65,4.51M3.72,22.87A117,117,0,0,1,45.86,34.78a115.36,115.36,0,0,0-12.36,4.8,113.43,113.43,0,0,0-11.42,6,118.85,118.85,0,0,0-10.52,7c-1.93,1.44-3.81,3-5.65,4.51" transform="translate(0 0)"/><path class="cls-5" d="M75.12,37.86c0,.28,0,.57,0,.85a37.27,37.27,0,0,1-1.46,9.56,36.47,36.47,0,0,1-1.57,4.36A37.28,37.28,0,0,1,69,58.3c-.59.9-1.22,1.77-1.89,2.62a37.15,37.15,0,0,1-29.27,14.2,37.75,37.75,0,0,1-8-.86,37.38,37.38,0,0,1-18-9.75,37.77,37.77,0,0,1-5.89-7.43A38.89,38.89,0,0,1,3,51.21,36.75,36.75,0,0,1,.77,41.53a34.29,34.29,0,0,1-.19-3.67A37.86,37.86,0,0,1,1,32.09a36.73,36.73,0,0,1,2.7-9.22,37.26,37.26,0,0,1,71.4,15Z" transform="translate(0 0)"/></g></g></g></svg>