<svg xmlns="http://www.w3.org/2000/svg" xmlns:xlink="http://www.w3.org/1999/xlink" viewBox="0 0 28.18 28.18"><defs><style>.cls-1,.cls-5{fill:none;}.cls-2{clip-path:url(#clip-path);}.cls-3{fill:#28517f;}.cls-4{fill:#fff;}.cls-5{stroke:#28517f;stroke-linecap:round;stroke-linejoin:round;stroke-width:0.44px;}</style><clipPath id="clip-path" transform="translate(0 0)"><rect class="cls-1" width="28.18" height="28.18"/></clipPath></defs><title>Recurso 4</title><g id="Capa_2" data-name="Capa 2"><g id="Capa_1-2" data-name="Capa 1"><g class="cls-2"><path class="cls-3" d="M28.18,14.09A14.09,14.09,0,1,1,14.09,0,14.08,14.08,0,0,1,28.18,14.09" transform="translate(0 0)"/><path class="cls-4" d="M19.73,17.42a5.64,5.64,0,1,1-11.27,0V11.26l.21.06A2.06,2.06,0,0,0,10,13.07a1.93,1.93,0,0,0,2-.29A2.42,2.42,0,0,0,14,14.12h.27s0,0,0,0a2.42,2.42,0,0,0,2-1.34,1.94,1.94,0,0,0,2,.29,2.06,2.06,0,0,0,1.34-1.75l.2-.06Z" transform="translate(0 0)"/><path class="cls-5" d="M19.73,17.42a5.64,5.64,0,1,1-11.27,0V11.26l.21.06A2.06,2.06,0,0,0,10,13.07a1.93,1.93,0,0,0,2-.29A2.42,2.42,0,0,0,14,14.12h.27s0,0,0,0a2.42,2.42,0,0,0,2-1.34,1.94,1.94,0,0,0,2,.29,2.06,2.06,0,0,0,1.34-1.75l.2-.06Z" transform="translate(0 0)"/></g><line class="cls-5" x1="14.09" y1="23" x2="14.09" y2="19.97"/><line class="cls-5" x1="12.81" y1="19.9" x2="15.38" y2="19.9"/><g class="cls-2"><path class="cls-4" d="M8.46,11.26v1.52H6.39a1.27,1.27,0,1,1,0-2.54h1a1.81,1.81,0,0,0,1.05,1" transform="translate(0 0)"/><path class="cls-5" d="M8.46,11.26v1.52H6.39a1.27,1.27,0,1,1,0-2.54h1A1.81,1.81,0,0,0,8.46,11.26Z" transform="translate(0 0)"/><path class="cls-4" d="M23.07,11.51a1.27,1.27,0,0,1-1.27,1.27H19.73V11.26a1.8,1.8,0,0,0,1.06-1h1a1.27,1.27,0,0,1,1.27,1.27" transform="translate(0 0)"/><path class="cls-5" d="M23.07,11.51a1.27,1.27,0,0,1-1.27,1.27H19.73V11.26a1.8,1.8,0,0,0,1.06-1h1A1.27,1.27,0,0,1,23.07,11.51Z" transform="translate(0 0)"/><path class="cls-4" d="M20.93,9.63a1.66,1.66,0,0,1-.15.6,1.79,1.79,0,0,1-1.06,1l-.2.06a2.06,2.06,0,0,1-1.34,1.75,1.94,1.94,0,0,1-2-.29,2.42,2.42,0,0,1-2,1.34s0,0,0,0H14A2.42,2.42,0,0,1,12,12.78a1.93,1.93,0,0,1-2,.29,2.06,2.06,0,0,1-1.34-1.75l-.21-.06a1.8,1.8,0,0,1-1.05-1,1.91,1.91,0,0,1-.15-.6A1.86,1.86,0,0,1,8.67,7.94,2.08,2.08,0,0,1,10,6.18a1.93,1.93,0,0,1,2,.29A2.42,2.42,0,0,1,14,5.13h.29a2.42,2.42,0,0,1,2,1.34,1.94,1.94,0,0,1,2-.29,2.08,2.08,0,0,1,1.34,1.76,1.86,1.86,0,0,1,1.41,1.69" transform="translate(0 0)"/><path class="cls-5" d="M20.93,9.63a1.66,1.66,0,0,1-.15.6,1.79,1.79,0,0,1-1.06,1l-.2.06a2.06,2.06,0,0,1-1.34,1.75,1.94,1.94,0,0,1-2-.29,2.42,2.42,0,0,1-2,1.34s0,0,0,0H14A2.42,2.42,0,0,1,12,12.78a1.93,1.93,0,0,1-2,.29,2.06,2.06,0,0,1-1.34-1.75l-.21-.06a1.8,1.8,0,0,1-1.05-1,1.91,1.91,0,0,1-.15-.6A1.86,1.86,0,0,1,8.67,7.94,2.08,2.08,0,0,1,10,6.18a1.93,1.93,0,0,1,2,.29A2.42,2.42,0,0,1,14,5.13h.29a2.42,2.42,0,0,1,2,1.34,1.94,1.94,0,0,1,2-.29,2.08,2.08,0,0,1,1.34,1.76A1.86,1.86,0,0,1,20.93,9.63Z" transform="translate(0 0)"/><path class="cls-4" d="M14.11,5.13Z" transform="translate(0 0)"/><path class="cls-5" d="M14.11,5.13Z" transform="translate(0 0)"/><path class="cls-4" d="M14.11,5.13Z" transform="translate(0 0)"/><path class="cls-5" d="M14.11,5.13Z" transform="translate(0 0)"/><path class="cls-4" d="M14.11,5.13Z" transform="translate(0 0)"/><path class="cls-5" d="M14.11,5.13Z" transform="translate(0 0)"/><path class="cls-4" d="M14.25,14.08h0Z" transform="translate(0 0)"/><path class="cls-5" d="M14.25,14.08h0Z" transform="translate(0 0)"/><path class="cls-4" d="M14,14.08h0Z" transform="translate(0 0)"/><path class="cls-5" d="M14,14.08h0Z" transform="translate(0 0)"/></g></g></g></svg>