<svg xmlns="http://www.w3.org/2000/svg" xmlns:xlink="http://www.w3.org/1999/xlink" viewBox="0 0 74.54 74.54"><defs><style>.cls-1,.cls-4{fill:none;}.cls-2{clip-path:url(#clip-path);}.cls-3{fill:#28517f;}.cls-4{stroke:#fff;stroke-linecap:round;stroke-linejoin:round;stroke-width:1.16px;}</style><clipPath id="clip-path" transform="translate(0 0)"><rect class="cls-1" width="74.54" height="74.54"/></clipPath></defs><title>Recurso 15</title><g id="Capa_2" data-name="Capa 2"><g id="Capa_1-2" data-name="Capa 1"><g class="cls-2"><path class="cls-3" d="M74.54,37.27A37.27,37.27,0,1,1,37.27,0,37.27,37.27,0,0,1,74.54,37.27" transform="translate(0 0)"/><path class="cls-4" d="M37,37.23h0Zm.73,0h0Zm-.37-23.67h0Zm0,0h0Zm0,0h0Zm18,11.9a5,5,0,0,1-3.19,4.33l-.52.15a5.53,5.53,0,0,1-3.55,4.63,5.11,5.11,0,0,1-5.26-.77,6.42,6.42,0,0,1-5.17,3.55h0l-.32,0h0l-.32,0h-.05a6.38,6.38,0,0,1-5.17-3.55,5.11,5.11,0,0,1-5.26.77,5.5,5.5,0,0,1-3.56-4.63l-.55-.16a4.71,4.71,0,0,1-2.78-2.71,5,5,0,0,1-.38-1.61A4.9,4.9,0,0,1,22.92,21a5.51,5.51,0,0,1,3.56-4.64,5.11,5.11,0,0,1,5.26.77,6.4,6.4,0,0,1,5.17-3.55h.75a6.44,6.44,0,0,1,5.17,3.55,5.11,5.11,0,0,1,5.26-.77A5.54,5.54,0,0,1,51.64,21,4.92,4.92,0,0,1,55.35,25.46Zm5.66,5a3.37,3.37,0,0,1-3.37,3.37H52.17v-4A4.68,4.68,0,0,0,55,27.07h2.68A3.37,3.37,0,0,1,61,30.43Zm-38.64-.65v4H16.9a3.37,3.37,0,0,1,0-6.73h2.69A4.71,4.71,0,0,0,22.37,29.78Zm11.5,22.84h6.81m-3.4,8.2v-8m14.9-6.76a14.91,14.91,0,1,1-29.81,0V29.78l.55.16a5.5,5.5,0,0,0,3.56,4.63,5.11,5.11,0,0,0,5.26-.77,6.38,6.38,0,0,0,5.17,3.55H37l.32,0h0l.32,0h0a6.42,6.42,0,0,0,5.17-3.55,5.11,5.11,0,0,0,5.26.77,5.53,5.53,0,0,0,3.55-4.63l.52-.15Z" transform="translate(0 0)"/></g></g></g></svg>