<svg xmlns="http://www.w3.org/2000/svg" xmlns:xlink="http://www.w3.org/1999/xlink" viewBox="0 0 28.21 28.18"><defs><style>.cls-1,.cls-5,.cls-6,.cls-7,.cls-8{fill:none;}.cls-2{clip-path:url(#clip-path);}.cls-3{fill:#efae66;}.cls-4{fill:#fff;}.cls-5,.cls-6{stroke:#fff;}.cls-5,.cls-7{stroke-linecap:round;}.cls-5,.cls-6,.cls-7,.cls-8{stroke-miterlimit:10;stroke-width:0.44px;}.cls-7,.cls-8{stroke:#efae66;}</style><clipPath id="clip-path" transform="translate(0 0)"><rect class="cls-1" width="28.21" height="28.18"/></clipPath></defs><title>Recurso 5</title><g id="Capa_2" data-name="Capa 2"><g id="Capa_1-2" data-name="Capa 1"><g class="cls-2"><path class="cls-3" d="M28.18,14.09A14.09,14.09,0,1,1,14.09,0,14.08,14.08,0,0,1,28.18,14.09" transform="translate(0 0)"/><path class="cls-4" d="M14.34.22a13.87,13.87,0,0,1,0,27.74Z" transform="translate(0 0)"/><path class="cls-3" d="M14.12,0V28.18A14.09,14.09,0,0,0,14.12,0m.44.45a13.65,13.65,0,0,1,0,27.29Z" transform="translate(0 0)"/></g><line class="cls-5" x1="7.37" y1="21.51" x2="9.9" y2="21.51"/><g class="cls-2"><circle class="cls-6" cx="8.64" cy="14.86" r="3.18"/></g><line class="cls-5" x1="8.64" y1="18.05" x2="8.64" y2="23.18"/><path class="cls-7" d="M22.31,8.85h2.53m0,2.53V8.85" transform="translate(0 0)"/><g class="cls-2"><path class="cls-8" d="M16.71,12.48a3.18,3.18,0,1,1,0,4.5A3.19,3.19,0,0,1,16.71,12.48Z" transform="translate(0 0)"/></g><line class="cls-7" x1="21.21" y1="12.48" x2="24.84" y2="8.85"/></g></g></svg>