<svg xmlns="http://www.w3.org/2000/svg" xmlns:xlink="http://www.w3.org/1999/xlink" viewBox="0 0 28.18 28.18"><defs><style>.cls-1,.cls-5{fill:none;}.cls-2{clip-path:url(#clip-path);}.cls-3{fill:#e8695b;}.cls-4{fill:#fff;}.cls-5{stroke:#e8695b;stroke-linecap:round;stroke-linejoin:round;stroke-width:0.44px;}</style><clipPath id="clip-path" transform="translate(0 0)"><rect class="cls-1" width="28.18" height="28.18"/></clipPath></defs><title>Recurso 6</title><g id="Capa_2" data-name="Capa 2"><g id="Capa_1-2" data-name="Capa 1"><g class="cls-2"><path class="cls-3" d="M28.18,14.09A14.09,14.09,0,1,1,14.09,0,14.08,14.08,0,0,1,28.18,14.09" transform="translate(0 0)"/><path class="cls-4" d="M16,21l3.16-5.16a.41.41,0,0,1,.56-.15.43.43,0,0,1,.2.5L19,19a.25.25,0,0,0,.39.28A20.05,20.05,0,0,0,21.57,17l1.74-3.62a.51.51,0,0,1,.94.38L23,18.62a1.19,1.19,0,0,1-.39.63L18.4,23A1.58,1.58,0,0,1,16,21" transform="translate(0 0)"/><path class="cls-4" d="M12.2,21,9.05,15.83a.42.42,0,0,0-.57-.15.41.41,0,0,0-.19.5L9.14,19a.25.25,0,0,1-.38.28A20.05,20.05,0,0,1,6.62,17S5.36,14.4,4.88,13.39a.51.51,0,0,0-.95.38l1.23,4.85a1.17,1.17,0,0,0,.38.63L9.79,23a1.57,1.57,0,0,0,2.09,0h0a1.57,1.57,0,0,0,.32-2" transform="translate(0 0)"/><path class="cls-4" d="M19.55,10.25a5.46,5.46,0,1,1-5.46-5.46,5.46,5.46,0,0,1,5.46,5.46" transform="translate(0 0)"/><path class="cls-5" d="M9.62,13.45a7.8,7.8,0,0,1,4.44-1,7.64,7.64,0,0,1,4.44,1.07M9.62,7.06a7.8,7.8,0,0,0,4.44,1A7.64,7.64,0,0,0,18.5,7M14.09,4.8s2.61.66,2.61,5.45-2.48,5.46-2.48,5.46M14.09,4.8s-2.61.66-2.61,5.45S14,15.71,14,15.71m5.59-5.46H8.64M14.09,4.8V15.71" transform="translate(0 0)"/></g></g></g></svg>