<svg xmlns="http://www.w3.org/2000/svg" xmlns:xlink="http://www.w3.org/1999/xlink" viewBox="0 0 74.54 74.54"><defs><style>.cls-1,.cls-4{fill:none;}.cls-2{clip-path:url(#clip-path);}.cls-3{fill:#e8695b;}.cls-4{stroke:#fff;stroke-linecap:round;stroke-linejoin:round;stroke-width:1.16px;}</style><clipPath id="clip-path" transform="translate(0 0)"><rect class="cls-1" width="74.54" height="74.54"/></clipPath></defs><title>Recurso 17</title><g id="Capa_2" data-name="Capa 2"><g id="Capa_1-2" data-name="Capa 1"><g class="cls-2"><path class="cls-3" d="M74.54,37.27A37.27,37.27,0,1,1,37.27,0,37.27,37.27,0,0,1,74.54,37.27" transform="translate(0 0)"/><path class="cls-4" d="M25.45,35.58s3.67-2.76,11.73-2.76,11.74,2.82,11.74,2.82m-23.47-17s3.67,2.76,11.73,2.76S48.92,18.6,48.92,18.6M37.27,12.68s6.91,1.75,6.91,14.43-6.56,14.43-6.56,14.43m-.35-28.86s-6.91,1.75-6.91,14.43,6.56,14.43,6.56,14.43M51.7,27.11H22.84M37.27,12.68V41.54M51.7,27.11A14.43,14.43,0,1,1,37.27,12.68,14.43,14.43,0,0,1,51.7,27.11ZM32.27,55.51,23.93,41.86a1.12,1.12,0,0,0-2,.94l2.27,7.41a.66.66,0,0,1-1,.73A53.82,53.82,0,0,1,17.5,45l-4.6-9.58a1.35,1.35,0,0,0-2.5,1l3.24,12.84a3.27,3.27,0,0,0,1,1.67l11.23,9.85a4.17,4.17,0,0,0,6.38-5.26Zm10,0,8.34-13.65a1.12,1.12,0,0,1,2,.94l-2.27,7.41a.66.66,0,0,0,1,.73A54.22,54.22,0,0,0,57.05,45s3.31-6.92,4.59-9.58a1.35,1.35,0,0,1,2.51,1L60.9,49.25a3.27,3.27,0,0,1-1,1.67L48.66,60.77a4.18,4.18,0,0,1-6.39-5.26Z" transform="translate(0 0)"/></g></g></g></svg>