<svg xmlns="http://www.w3.org/2000/svg" xmlns:xlink="http://www.w3.org/1999/xlink" viewBox="0 0 28.18 28.18"><defs><style>.cls-1{fill:none;}.cls-2{clip-path:url(#clip-path);}.cls-3{fill:#ad4c42;}.cls-4{fill:#fff;}</style><clipPath id="clip-path" transform="translate(0 0)"><rect class="cls-1" width="28.18" height="28.18"/></clipPath></defs><title>Recurso 7</title><g id="Capa_2" data-name="Capa 2"><g id="Capa_1-2" data-name="Capa 1"><g class="cls-2"><path class="cls-3" d="M28.18,14.09A14.09,14.09,0,1,1,14.09,0,14.08,14.08,0,0,1,28.18,14.09" transform="translate(0 0)"/><path class="cls-4" d="M6.33,15.69l9.4-.45a.66.66,0,0,1,.69.6.68.68,0,0,1-.48.69l-4.36,1.34a.39.39,0,0,0,0,.74,31.11,31.11,0,0,0,4.76.79l6.17-.92a.79.79,0,0,1,.88.56.8.8,0,0,1-.53,1l-7.32,2.66a1.89,1.89,0,0,1-1.15.06l-8.5-2.21a2.45,2.45,0,0,1,.45-4.84" transform="translate(0 0)"/><path class="cls-4" d="M15.68,5.93a4.21,4.21,0,0,1-1.56,2.76,4.21,4.21,0,0,1-1.55-2.76,4.21,4.21,0,0,1,1.55-2.75,4.21,4.21,0,0,1,1.56,2.75" transform="translate(0 0)"/><path class="cls-4" d="M18.47,11.35a4.23,4.23,0,0,1-3,.85,4.17,4.17,0,0,1,.85-3,4.2,4.2,0,0,1,3-.85,4.25,4.25,0,0,1-.84,3" transform="translate(0 0)"/><path class="cls-4" d="M11.9,9.17a4.17,4.17,0,0,1,.85,3.05,4.18,4.18,0,0,1-3.05-.85,4.23,4.23,0,0,1-.85-3,4.23,4.23,0,0,1,3.05.85" transform="translate(0 0)"/></g></g></g></svg>