<svg xmlns="http://www.w3.org/2000/svg" xmlns:xlink="http://www.w3.org/1999/xlink" viewBox="0 0 74.54 74.54"><defs><style>.cls-1,.cls-4,.cls-5{fill:none;}.cls-2{clip-path:url(#clip-path);}.cls-3{fill:#ad4c42;}.cls-4,.cls-5{stroke:#fff;stroke-linecap:round;stroke-linejoin:round;}.cls-4{stroke-width:1.16px;}.cls-5{stroke-width:1.28px;}</style><clipPath id="clip-path" transform="translate(0 0)"><rect class="cls-1" width="74.54" height="74.54"/></clipPath></defs><title>Recurso 18</title><g id="Capa_2" data-name="Capa 2"><g id="Capa_1-2" data-name="Capa 1"><g class="cls-2"><path class="cls-3" d="M74.54,37.27A37.27,37.27,0,1,1,37.27,0,37.27,37.27,0,0,1,74.54,37.27" transform="translate(0 0)"/><path class="cls-4" d="M16.75,41.48,41.6,40.3a1.74,1.74,0,0,1,.55,3.42L30.64,47.26a1,1,0,0,0-.05,2c3.84,1.26,12.59,2.1,12.59,2.1S55,49.54,59.52,48.88a2.09,2.09,0,0,1,2.31,1.49A2.11,2.11,0,0,1,60.44,53L41.08,60a5.17,5.17,0,0,1-3,.14L15.56,54.29a6.5,6.5,0,0,1,1.19-12.81Z" transform="translate(0 0)"/><path class="cls-5" d="M31.48,24.25c2.84,2.84,2.24,8.06,2.24,8.06s-5.22.6-8.06-2.24S23.42,22,23.42,22,28.65,21.43,31.48,24.25ZM48.84,30c-2.84,2.84-8.06,2.24-8.06,2.24S40.18,27,43,24.2,51.08,22,51.08,22,51.66,27.19,48.84,30ZM41.47,15.69c0,4-4.12,7.28-4.12,7.28s-4.11-3.27-4.11-7.28S37.35,8.4,37.35,8.4,41.47,11.69,41.47,15.69Z" transform="translate(0 0)"/></g></g></g></svg>