<svg xmlns="http://www.w3.org/2000/svg" xmlns:xlink="http://www.w3.org/1999/xlink" viewBox="0 0 28.18 28.18"><defs><style>.cls-1{fill:none;}.cls-2{clip-path:url(#clip-path);}.cls-3{fill:#f7cfa4;}.cls-4{fill:#fff;}.cls-5{fill:#f4dfcd;}</style><clipPath id="clip-path" transform="translate(0 0)"><rect class="cls-1" width="28.18" height="28.18"/></clipPath></defs><title>Recurso 8</title><g id="Capa_2" data-name="Capa 2"><g id="Capa_1-2" data-name="Capa 1"><g class="cls-2"><path class="cls-3" d="M28.18,14.09A14.09,14.09,0,1,1,14.09,0,14.08,14.08,0,0,1,28.18,14.09" transform="translate(0 0)"/><path class="cls-4" d="M20.49,6.38H12a1.77,1.77,0,0,0-1.77,1.77v2.49a.44.44,0,0,0,.44.44H16.2a.89.89,0,0,1,.89.89v3.76a.44.44,0,0,0,.44.44h3a1.77,1.77,0,0,0,1.77-1.77V8.15a1.77,1.77,0,0,0-1.77-1.77m0,.44a1.34,1.34,0,0,1,1.33,1.33V14.4a1.34,1.34,0,0,1-1.33,1.33h-3V12a1.34,1.34,0,0,0-1.33-1.33H10.65V8.15A1.34,1.34,0,0,1,12,6.82Z" transform="translate(0 0)"/><path class="cls-4" d="M17.53,12v6.24a1.33,1.33,0,0,1-1.33,1.33H8.49L7.33,21.15a.54.54,0,0,1-1-.32V12a1.34,1.34,0,0,1,1.33-1.33H16.2A1.34,1.34,0,0,1,17.53,12" transform="translate(0 0)"/><path class="cls-5" d="M10.41,15.75a.53.53,0,0,1-.53.53.53.53,0,0,1,0-1.06.53.53,0,0,1,.53.53" transform="translate(0 0)"/><path class="cls-5" d="M12.47,15.75a.52.52,0,0,1-.52.53.53.53,0,0,1,0-1.06.52.52,0,0,1,.52.53" transform="translate(0 0)"/><path class="cls-5" d="M14.54,15.75a.53.53,0,1,1-.53-.53.53.53,0,0,1,.53.53" transform="translate(0 0)"/></g></g></g></svg>