<svg xmlns="http://www.w3.org/2000/svg" xmlns:xlink="http://www.w3.org/1999/xlink" viewBox="0 0 74.54 74.54"><defs><style>.cls-1,.cls-5,.cls-6{fill:none;}.cls-2{clip-path:url(#clip-path);}.cls-3{fill:#f7cfa4;}.cls-4{fill:#fff;}.cls-5,.cls-6{stroke:#fff;}.cls-5{stroke-linecap:round;stroke-linejoin:round;stroke-width:1.16px;}.cls-6{stroke-miterlimit:10;}</style><clipPath id="clip-path" transform="translate(0 0)"><rect class="cls-1" width="74.54" height="74.54"/></clipPath></defs><title>Recurso 19</title><g id="Capa_2" data-name="Capa 2"><g id="Capa_1-2" data-name="Capa 1"><g class="cls-2"><path class="cls-3" d="M74.54,37.27A37.27,37.27,0,1,1,37.27,0,37.27,37.27,0,0,1,74.54,37.27" transform="translate(0 0)"/><path class="cls-4" d="M57.71,21.56V38.08a3.53,3.53,0,0,1-3.52,3.52H33.82l-3.08,4.23A1.41,1.41,0,0,1,28.18,45V21.56A3.52,3.52,0,0,1,31.69,18h22.5a3.53,3.53,0,0,1,3.52,3.52" transform="translate(0 0)"/><path class="cls-5" d="M57.71,21.56V38.08a3.53,3.53,0,0,1-3.52,3.52H33.82l-3.08,4.23A1.41,1.41,0,0,1,28.18,45V21.56A3.52,3.52,0,0,1,31.69,18h22.5A3.53,3.53,0,0,1,57.71,21.56Z" transform="translate(0 0)"/><path class="cls-3" d="M46.36,31.64V48.16a3.53,3.53,0,0,1-3.52,3.52H22.47l-3.08,4.24a1.42,1.42,0,0,1-2.56-.84V31.64a3.54,3.54,0,0,1,3.51-3.52h22.5a3.53,3.53,0,0,1,3.52,3.52" transform="translate(0 0)"/><path class="cls-6" d="M46.36,31.64V48.16a3.53,3.53,0,0,1-3.52,3.52H22.47l-3.08,4.24a1.42,1.42,0,0,1-2.56-.84V31.64a3.54,3.54,0,0,1,3.51-3.52h22.5A3.53,3.53,0,0,1,46.36,31.64Z" transform="translate(0 0)"/><path class="cls-4" d="M27.53,41.65a1.39,1.39,0,1,1-1.39-1.39,1.39,1.39,0,0,1,1.39,1.39" transform="translate(0 0)"/><path class="cls-4" d="M33,41.65a1.39,1.39,0,1,1-1.39-1.39A1.39,1.39,0,0,1,33,41.65" transform="translate(0 0)"/><path class="cls-4" d="M38.45,41.65a1.4,1.4,0,1,1-1.4-1.39,1.4,1.4,0,0,1,1.4,1.39" transform="translate(0 0)"/></g></g></g></svg>