<svg xmlns="http://www.w3.org/2000/svg" xmlns:xlink="http://www.w3.org/1999/xlink" viewBox="0 0 28.18 28.18"><defs><style>.cls-1{fill:none;}.cls-2{clip-path:url(#clip-path);}.cls-3{fill:#f2aa99;}.cls-4{fill:#fff;}</style><clipPath id="clip-path" transform="translate(0 0)"><rect class="cls-1" width="28.18" height="28.18"/></clipPath></defs><title>Recurso 9</title><g id="Capa_2" data-name="Capa 2"><g id="Capa_1-2" data-name="Capa 1"><g class="cls-2"><path class="cls-3" d="M28.18,14.09A14.09,14.09,0,1,1,14.09,0,14.08,14.08,0,0,1,28.18,14.09" transform="translate(0 0)"/><path class="cls-4" d="M14.67,5.23A2.36,2.36,0,0,1,17,7.58a2.4,2.4,0,0,1-2.35,2.34,2.35,2.35,0,0,1,0-4.69" transform="translate(0 0)"/><path class="cls-4" d="M18,21c-.7,2.57-7.58,2.81-7.11-.71.32-2.34.78-4.61,1.17-6.87.24-1.49-.7-1-1.56-1.33A.56.56,0,0,1,10.69,11a33.3,33.3,0,0,1,4.92-.08.88.88,0,0,1,.94.86,7.32,7.32,0,0,1-.16,1.32c-.39,2.19-.94,4.54-1.25,6.72,0,.47.08,1.33.78,1.25a3.46,3.46,0,0,0,1.57-.54c.31-.16.62.07.54.47" transform="translate(0 0)"/></g></g></g></svg>