<svg xmlns="http://www.w3.org/2000/svg" xmlns:xlink="http://www.w3.org/1999/xlink" viewBox="0 0 74.54 74.54"><defs><style>.cls-1,.cls-4{fill:none;}.cls-2{clip-path:url(#clip-path);}.cls-3{fill:#f2aa99;}.cls-4{stroke:#fff;stroke-linecap:round;stroke-linejoin:round;stroke-width:1.16px;}</style><clipPath id="clip-path" transform="translate(0 0)"><rect class="cls-1" width="74.54" height="74.54"/></clipPath></defs><title>Recurso 20</title><g id="Capa_2" data-name="Capa 2"><g id="Capa_1-2" data-name="Capa 1"><g class="cls-2"><path class="cls-3" d="M74.54,37.27A37.27,37.27,0,1,1,37.27,0,37.27,37.27,0,0,1,74.54,37.27" transform="translate(0 0)"/><path class="cls-4" d="M47.69,55.58c-1.86,6.82-20,7.44-18.8-1.86.83-6.2,2.07-12.19,3.1-18.18.62-3.93-1.86-2.69-4.13-3.52-1.45-.62-1.45-2.48.41-2.89,2.27-.62,10.33-.21,13-.21a2.35,2.35,0,0,1,2.48,2.28,20,20,0,0,1-.42,3.51c-1,5.79-2.48,12-3.3,17.77,0,1.24.2,3.51,2.06,3.31,1.86,0,2.69-.83,4.14-1.45.82-.41,1.65.21,1.44,1.24M38.81,13.84A6.22,6.22,0,0,1,45,20a6.36,6.36,0,0,1-6.2,6.2,6.2,6.2,0,0,1,0-12.4" transform="translate(0 0)"/></g></g></g></svg>