<svg xmlns="http://www.w3.org/2000/svg" xmlns:xlink="http://www.w3.org/1999/xlink" viewBox="0 0 28.18 28.18"><defs><style>.cls-1,.cls-5{fill:none;}.cls-2{clip-path:url(#clip-path);}.cls-3{fill:#b4ab72;}.cls-4{fill:#fff;}.cls-5{stroke:#b4ab72;stroke-linecap:round;stroke-linejoin:round;stroke-width:0.49px;}</style><clipPath id="clip-path" transform="translate(0 0)"><rect class="cls-1" width="28.18" height="28.18"/></clipPath></defs><title>Recurso 10</title><g id="Capa_2" data-name="Capa 2"><g id="Capa_1-2" data-name="Capa 1"><g class="cls-2"><path class="cls-3" d="M28.18,14.09A14.09,14.09,0,1,1,14.09,0,14.08,14.08,0,0,1,28.18,14.09" transform="translate(0 0)"/><path class="cls-4" d="M10.6,14.14V6.68a1.16,1.16,0,1,1,2.32,0v7.46" transform="translate(0 0)"/><path class="cls-5" d="M10.6,14.14V6.68a1.16,1.16,0,1,1,2.32,0v7.46" transform="translate(0 0)"/><path class="cls-4" d="M12.92,14.14V5.24a1.17,1.17,0,0,1,1.17-1.17h0a1.16,1.16,0,0,1,1.16,1.17v8.9" transform="translate(0 0)"/><path class="cls-5" d="M12.92,14.14V5.24a1.17,1.17,0,0,1,1.17-1.17h0a1.16,1.16,0,0,1,1.16,1.17v8.9" transform="translate(0 0)"/><path class="cls-4" d="M15.25,14.14V6.77A1.17,1.17,0,0,1,16.42,5.6h0a1.16,1.16,0,0,1,1.16,1.17v7.37" transform="translate(0 0)"/><path class="cls-5" d="M15.25,14.14V6.77A1.17,1.17,0,0,1,16.42,5.6h0a1.16,1.16,0,0,1,1.16,1.17v7.37" transform="translate(0 0)"/><path class="cls-4" d="M17.58,14.14V11.4a1.17,1.17,0,0,1,1.17-1.17h0a1.18,1.18,0,0,1,1.17,1.17v6.89h0a5.83,5.83,0,0,1-11.65,0h0V9A1.17,1.17,0,0,1,10.6,9v5.14" transform="translate(0 0)"/><path class="cls-5" d="M17.58,14.14V11.4a1.17,1.17,0,0,1,1.17-1.17h0a1.18,1.18,0,0,1,1.17,1.17v6.89h0a5.83,5.83,0,0,1-11.65,0h0V9A1.17,1.17,0,0,1,10.6,9v5.14" transform="translate(0 0)"/></g></g></g></svg>