<svg xmlns="http://www.w3.org/2000/svg" xmlns:xlink="http://www.w3.org/1999/xlink" viewBox="0 0 74.54 74.54"><defs><style>.cls-1,.cls-4{fill:none;}.cls-2{clip-path:url(#clip-path);}.cls-3{fill:#b4ab72;}.cls-4{stroke:#fff;stroke-linecap:round;stroke-linejoin:round;stroke-width:1.28px;}</style><clipPath id="clip-path" transform="translate(0 0)"><rect class="cls-1" width="74.54" height="74.54"/></clipPath></defs><title>Recurso 21</title><g id="Capa_2" data-name="Capa 2"><g id="Capa_1-2" data-name="Capa 1"><g class="cls-2"><path class="cls-3" d="M74.54,37.27A37.27,37.27,0,1,1,37.27,0,37.27,37.27,0,0,1,74.54,37.27" transform="translate(0 0)"/><path class="cls-4" d="M46.5,37.38V30.15a3.08,3.08,0,0,1,3.08-3.08h0a3.08,3.08,0,0,1,3.08,3.08V48.37h0a15.4,15.4,0,1,1-30.8,0h0V23.8a3.08,3.08,0,0,1,6.15,0V37.38m12.32,0V17.89a3.08,3.08,0,0,1,3.08-3.08h0a3.08,3.08,0,0,1,3.08,3.08v19.5m-12.32,0V13.85a3.08,3.08,0,0,1,3.08-3.08h0a3.08,3.08,0,0,1,3.08,3.08V37.39M28,37.38V17.67a3.08,3.08,0,1,1,6.16,0V37.38" transform="translate(0 0)"/></g></g></g></svg>