<?xml version="1.0" standalone="no"?>
<!DOCTYPE svg PUBLIC "-//W3C//DTD SVG 1.1//EN" "http://www.w3.org/Graphics/SVG/1.1/DTD/svg11.dtd" >
<svg xmlns="http://www.w3.org/2000/svg">
<metadata>Generated by IcoMoon</metadata>
<defs>
<font id="commonlandsnet" horiz-adv-x="1024">
<font-face units-per-em="1024" ascent="960" descent="-64" />
<missing-glyph horiz-adv-x="1024" />
<glyph unicode="&#x20;" horiz-adv-x="512" d="" />
<glyph unicode="&#xe900;" glyph-name="youtube" d="M1003.52-43.52h-983.040v979.627h979.627v-979.627zM81.92 14.507h863.573v863.573h-863.573v-863.573zM795.307 591.36c-6.827 23.893-27.307 44.373-51.2 51.2-47.787 13.653-232.107 13.653-232.107 13.653s-184.32 0-232.107-13.653c-23.893-6.827-44.373-27.307-51.2-51.2-13.653-47.787-13.653-143.36-13.653-143.36s0-95.573 13.653-143.36c6.827-23.893 27.307-44.373 51.2-51.2 47.787-13.653 232.107-13.653 232.107-13.653s184.32 0 232.107 13.653c23.893 6.827 44.373 27.307 51.2 51.2 13.653 47.787 13.653 143.36 13.653 143.36s0 95.573-13.653 143.36zM453.973 359.253v177.493l153.6-88.747-153.6-88.747z" />
<glyph unicode="&#xe901;" glyph-name="whatsapp" d="M1003.52-43.52h-983.040v979.627h979.627v-979.627zM81.92 14.507h863.573v863.573h-863.573v-863.573zM689.493 594.773c-47.787 44.373-109.227 71.68-177.493 71.68-136.533 0-249.173-112.64-249.173-249.173 0-44.373 10.24-88.747 34.133-126.293l-34.133-129.707 133.12 34.133c37.547-20.48 78.507-30.72 119.467-30.72v0c136.533 0 249.173 112.64 249.173 249.173 0 68.267-27.307 133.12-75.093 180.907zM512 209.067v0c-37.547 0-75.093 10.24-105.813 30.72l-6.827 3.413-78.507-20.48 20.48 78.507-3.413 6.827c-20.48 34.133-30.72 71.68-30.72 109.227 0 116.053 92.16 208.213 208.213 208.213 54.613 0 109.227-20.48 146.773-61.44 40.96-40.96 61.44-92.16 61.44-146.773-3.413-116.053-95.573-208.213-211.627-208.213zM628.053 362.667c-6.827 3.413-37.547 17.067-44.373 20.48s-10.24 3.413-13.653-3.413-17.067-20.48-20.48-23.893c-3.413-3.413-6.827-3.413-13.653 0s-27.307 10.24-51.2 30.72c-17.067 17.067-30.72 37.547-34.133 44.373s0 10.24 3.413 13.653c3.413 3.413 6.827 6.827 10.24 10.24s3.413 6.827 6.827 10.24c3.413 3.413 0 6.827 0 10.24s-13.653 34.133-20.48 47.787c-3.413 13.653-10.24 10.24-13.653 10.24s-6.827 0-13.653 0-10.24 0-17.067-6.827-20.48-20.48-20.48-51.2 23.893-61.44 23.893-64.853 44.373-68.267 105.813-95.573c13.653-6.827 27.307-10.24 34.133-13.653 13.653-3.413 27.307-3.413 40.96-3.413 13.653 3.413 37.547 13.653 40.96 30.72s6.827 27.307 3.413 30.72 0 0-6.827 3.413z" />
<glyph unicode="&#xe902;" glyph-name="vimeo" d="M1003.52-43.52h-983.040v979.627h979.627v-979.627zM81.92 14.507h863.573v863.573h-863.573v-863.573zM768 516.267c-3.413-51.2-37.547-119.467-105.813-204.8-71.68-92.16-129.707-136.533-177.493-136.533-30.72 0-54.613 27.307-75.093 81.92-13.653 51.2-27.307 102.4-40.96 153.6-17.067 54.613-30.72 81.92-51.2 81.92-3.413 0-17.067-6.827-40.96-23.893l-23.893 30.72c23.893 23.893 51.2 44.373 75.093 68.267 34.133 30.72 58.027 44.373 75.093 47.787 40.96 3.413 64.853-23.893 75.093-81.92 10.24-64.853 17.067-102.4 20.48-119.467 10.24-51.2 23.893-78.507 37.547-78.507 10.24 0 27.307 17.067 47.787 51.2s34.133 61.44 34.133 78.507c3.413 30.72-6.827 44.373-34.133 44.373-13.653 0-23.893-3.413-37.547-6.827 23.893 81.92 75.093 122.88 146.773 119.467 54.613-3.413 78.507-37.547 75.093-105.813z" />
<glyph unicode="&#xe903;" glyph-name="trash" horiz-adv-x="864" d="M297.762 862.791c-0.002 0.14-0.003 0.306-0.003 0.472 0 22.674 18.381 41.054 41.054 41.054 0.001 0 0.002 0 0.003 0h186.396c0.001 0 0.002 0 0.003 0 22.674 0 41.054-18.381 41.054-41.054 0-0.166-0.001-0.332-0.003-0.497v0.025-27.841h-268.505zM672.442 50.669c-3.004-33.184-30.689-58.987-64.4-58.987-0.087 0-0.175 0-0.262 0.001h-351.544c-0.074 0-0.161 0-0.248 0-33.711 0-61.396 25.803-64.382 58.736l-0.018 0.251-57.571 728.597h596.468zM27.841 779.266h50.020l58.514-732.844c5.279-62.033 56.917-110.388 119.856-110.422h351.561c62.943 0.034 114.58 48.389 119.829 109.977l0.031 0.445 58.514 732.844h50.020c15.376 0 27.841 12.465 27.841 27.841s-12.465 27.841-27.841 27.841h-214.238v27.841c0.028 0.853 0.043 1.856 0.043 2.862 0 52.123-42.254 94.378-94.378 94.378-0.845 0-1.687-0.011-2.527-0.033l0.124 0.003h-186.396c-0.716 0.019-1.558 0.031-2.403 0.031-52.123 0-94.378-42.254-94.378-94.378 0-1.006 0.016-2.009 0.047-3.008l-0.004 0.146v-27.841h-214.238c-15.376 0-27.841-12.465-27.841-27.841s12.465-27.841 27.841-27.841v0z" />
<glyph unicode="&#xe904;" glyph-name="pencil" horiz-adv-x="1023" d="M143.992 252.989l171.444-173.515-241.886-68.37zM731.355 856.409c24.467 25.554 58.857 41.437 96.957 41.437 0.147 0 0.295 0 0.442-0.001h-0.023c37.362-1.191 70.861-16.806 95.295-41.428l0.009-0.009c24.293-24.435 39.309-58.116 39.309-95.304s-15.016-70.869-39.315-95.31l0.006 0.006-43.508-41.437-192.68 189.572zM368.785 111.069l-190.090 193.198 466.161 466.161 190.608-190.608zM29.524-64c1.322-0.326 2.841-0.513 4.403-0.513s3.080 0.187 4.534 0.539l-0.131-0.027 314.4 91.678c15.195 4.377 28.258 12.078 38.876 22.3l-0.029-0.028 574.414 575.968c31.679 34.663 51.086 81.009 51.086 131.888 0 108.13-87.657 195.788-195.788 195.788-50.878 0-97.224-19.407-132.038-51.222l0.151 0.136-573.896-573.896c-10.244-10.735-17.954-23.979-22.115-38.711l-0.158-0.653-93.232-313.364c-0.713-2.482-1.123-5.332-1.123-8.279 0-8.477 3.394-16.161 8.897-21.768l-0.005 0.005c5.358-5.437 12.802-8.806 21.034-8.806 0.071 0 0.142 0 0.213 0.001h-0.011z" />
<glyph unicode="&#xe905;" glyph-name="user" horiz-adv-x="861" d="M800.113 7.577c-6.786-7.867-16.637-12.928-27.677-13.315l-0.066-0.002h-684.146c-11.123 0.046-21.061 5.082-27.697 12.983l-0.046 0.056c-0.86 1.289-1.372 2.873-1.372 4.578s0.512 3.289 1.391 4.608l-0.019-0.030 43.834 143.71c72.132 221.945 178.943 331.253 326.26 331.253h27.743c12.163-1.165 23.040-2.927 33.675-5.33l-1.771 0.336c102.095-21.917 181.163-103.205 239.146-246.637q14.704-36.344 27.743-78.236l45.221-144.819c0.224-0.754 0.352-1.62 0.352-2.516 0-2.473-0.981-4.717-2.574-6.365l0.002 0.003zM792.067 171.817c-24.090 83.247-59.256 155.937-104.538 221.064l1.611-2.448c-50.719 76.073-132.638 127.911-227.049 137.227l-1.277 0.102h-31.072c-166.459 0-284.090-116.799-362.048-357.609l-43.279-141.213c-2.079-4.975-3.287-10.755-3.287-16.818 0-9.717 3.103-18.709 8.372-26.040l-0.091 0.133c13.501-17.933 34.749-29.408 58.677-29.408 0.049 0 0.098 0 0.146 0h683.307c0.102 0 0.222-0.001 0.343-0.001 23.433 0 44.352 10.76 58.088 27.608l0.107 0.136c6.248 7.893 10.023 17.992 10.023 28.973 0 4.805-0.723 9.441-2.066 13.806l0.088-0.332zM429.742 548.402c-88.129 0-165.541-31.855-228.937-94.554s-113.397-155.143-153.020-277.543l-0.054-0.108-43.349-141.099 0.596 1.734c-8.442-20.772-5.636-44.483 7.369-62.747l0.108-0.216 0.163-0.216c17.796-23.822 45.857-37.806 75.589-37.767h683.369c29.005-0.1 56.513 12.955 74.776 35.492l0.216 0.216c13.628 17.339 17.988 40.322 11.65 61.446l-0.055 0.164-45.948 144.081c-22.78 80.033-58.422 155.811-105.554 224.384-54.906 83.221-144.586 137.184-243.837 146.681l-0.975 0.055zM430.554 470.483h26.118c9.767-0.936 19.461-2.392 29.044-4.497l0.055-0.055h0.055c93.872-20.152 167.58-94.127 224.112-233.975 9.561-23.631 18.607-49.183 27.147-76.618l42.591-136.277c-2.567-1.615-4.919-3.742-8.019-3.847h-683.314c-2.141 0.009-3.62 1.764-5.527 2.601l41.451 135.897 0.054 0.108 0.054 0.216c35.417 108.859 79.068 188.673 129.83 240.314 50.82 51.697 107.899 76.13 176.374 76.13zM815.99-6.089l-0.975-1.030c0.169 0.172-0.001 0.476 0.164 0.65 0.205 0.233 0.61 0.141 0.813 0.379zM429.742 901.462c2.007 0.088 4.36 0.139 6.726 0.139 90.094 0 163.13-73.036 163.13-163.13s-73.036-163.13-163.13-163.13c-2.365 0-4.719 0.050-7.060 0.15l0.334-0.011c-0.173-0.001-0.379-0.001-0.584-0.001-89.022 0-161.188 72.166-161.188 161.188 0 1.073 0.010 2.144 0.031 3.213l-0.002-0.16c0.158 89.264 72.478 161.585 161.727 161.743h0.015zM429.742 537.749c0.664-0.008 1.447-0.012 2.232-0.012 110.319 0 199.751 89.431 199.751 199.751 0 0.785-0.005 1.568-0.014 2.351l0.001-0.119c0 110.779-89.804 200.583-200.583 200.583s-200.583-89.804-200.583-200.583v0c-0.021-1.074-0.033-2.341-0.033-3.61 0-109.553 88.81-198.364 198.364-198.364 0.402 0 0.803 0.001 1.205 0.004h-0.062zM431.101 961.246c-122.039 0-221.363-99.332-221.457-221.349-2.103-122.608 97.417-223.466 220.048-223.030 123.427-1.281 224.292 99.54 222.975 222.975-0.061 122.048-99.504 221.404-221.565 221.404zM428.879 922.395h0.813c-0.133 0-0.247-0.054-0.379-0.054-0.153-0.006-0.282 0.060-0.434 0.054zM429.8 880.508h0.813c81.038 3.344 148.035-60.913 148.035-142.020s-66.997-145.419-148.035-142.075h-0.975c-78.957-0.286-142.217 63.945-140.722 142.888v0.379c0.133 77.969 62.913 140.697 140.883 140.83zM247.037 740.114c-0.001-0.077 0.055-0.139 0.054-0.217 0-0.059-0.054-0.103-0.054-0.163zM429.373 554.637c0.155 0 0.278-0.108 0.434-0.108h-0.921c0.175-0.007 0.314 0.114 0.488 0.108z" />
<glyph unicode="&#xe906;" glyph-name="user-del" horiz-adv-x="896" d="M680.141-3.055c-5.769-6.689-14.145-10.992-23.532-11.321l-0.056-0.002h-581.682c-9.457 0.039-17.907 4.321-23.549 11.039l-0.039 0.048c-0.731 1.096-1.166 2.443-1.166 3.892s0.435 2.796 1.183 3.918l-0.016-0.026 37.269 122.186c61.329 188.705 152.143 281.642 277.396 281.642h23.588c10.341-0.99 19.59-2.489 28.632-4.532l-1.505 0.286c86.804-18.635 154.030-87.748 203.329-209.698q12.502-30.9 23.588-66.518l38.449-123.13c0.19-0.641 0.3-1.377 0.3-2.139 0-2.103-0.834-4.011-2.189-5.411l0.002 0.002zM673.301 136.587c-20.482 70.779-50.381 132.583-88.882 187.955l1.37-2.081c-43.123 64.679-112.773 108.754-193.044 116.674l-1.086 0.087h-26.419c-141.529 0-241.542-99.306-307.825-304.051l-36.797-120.063c-1.768-4.23-2.795-9.144-2.795-14.299 0-8.262 2.638-15.907 7.118-22.14l-0.077 0.113c11.479-15.248 29.544-25.003 49.889-25.003 0.041 0 0.083 0 0.124 0h580.969c0.087 0 0.189-0.001 0.292-0.001 19.923 0 37.71 9.148 49.388 23.473l0.091 0.116c5.312 6.711 8.522 15.297 8.522 24.634 0 4.085-0.615 8.027-1.756 11.738l0.075-0.282zM365.24 456.772c-74.93 0-140.748-27.084-194.649-80.393s-96.414-131.907-130.102-235.975l-0.046-0.092-36.856-119.967 0.507 1.474c-7.178-17.661-4.792-37.821 6.265-53.349l0.092-0.184 0.138-0.184c15.131-20.254 38.989-32.143 64.268-32.11h580.998c24.661-0.085 48.049 11.015 63.577 30.176l0.184 0.184c11.587 14.743 15.294 34.283 9.905 52.243l-0.047 0.139-39.067 122.502c-19.368 68.047-49.672 132.475-89.746 190.778-46.683 70.757-122.932 116.638-207.318 124.713l-0.829 0.047zM365.931 390.522h22.206c8.304-0.796 16.546-2.034 24.694-3.824l0.047-0.047h0.047c79.813-17.134 142.482-80.030 190.547-198.933 8.129-20.092 15.821-41.817 23.081-65.143l36.212-115.867c-2.183-1.373-4.182-3.182-6.818-3.271h-580.998c-1.82 0.007-3.078 1.5-4.699 2.211l35.243 115.544 0.046 0.092 0.046 0.184c30.12 92.56 67.231 160.423 110.39 204.344 43.22 43.945 91.741 64.726 149.957 64.726zM693.641-14.674l-0.829-0.875c0.144 0.146-0.001 0.405 0.139 0.553 0.175 0.198 0.518 0.12 0.691 0.322zM365.24 756.961c1.706 0.075 3.707 0.118 5.719 0.118 76.601 0 138.698-62.097 138.698-138.698s-62.097-138.698-138.698-138.698c-2.011 0-4.012 0.043-6.003 0.128l0.284-0.010c-0.147-0.001-0.322-0.001-0.496-0.001-75.689 0-137.047 61.358-137.047 137.047 0 0.913 0.009 1.823 0.027 2.732l-0.002-0.136c0.134 75.895 61.623 137.384 137.506 137.519h0.013zM365.24 447.721c0.564-0.007 1.23-0.011 1.898-0.011 93.797 0 169.834 76.037 169.834 169.834 0 0.667-0.004 1.334-0.012 1.999l0.001-0.101c0 94.188-76.354 170.542-170.542 170.542s-170.542-76.354-170.542-170.542v0c-0.018-0.913-0.028-1.99-0.028-3.069 0-93.146 75.509-168.655 168.655-168.655 0.342 0 0.683 0.001 1.024 0.003h-0.053zM366.396 807.791c-103.762 0-188.209-84.455-188.29-188.198-1.788-104.245 82.827-189.997 187.091-189.627 104.941-1.090 190.7 84.632 189.58 189.58-0.047 103.788-84.61 188.261-188.375 188.261zM364.507 774.758h0.691c-0.113 0-0.21-0.046-0.322-0.046-0.13-0.005-0.239 0.051-0.369 0.046zM365.29 739.145h0.691c68.901 2.843 125.864-51.79 125.864-120.75s-56.963-123.639-125.864-120.797h-0.829c-67.132-0.236-120.913 54.371-119.639 121.479v0.323c0.113 66.292 53.491 119.625 119.783 119.738zM209.889 619.789c-0.001-0.066 0.047-0.118 0.046-0.184 0-0.050-0.046-0.087-0.046-0.139zM364.918 462.091c0.132 0 0.237-0.092 0.369-0.092h-0.783c0.149-0.006 0.267 0.097 0.415 0.092zM730.172 960c-91.503 0-166.315-74.812-166.315-166.315s74.812-166.315 166.315-166.315 166.315 74.812 166.315 166.315c0 91.512-74.821 166.324-166.32 166.324zM730.172 901.169c59.697 0 107.437-47.785 107.437-107.482s-47.738-107.437-107.437-107.437c-59.697 0-107.482 47.738-107.482 107.437 0 59.697 47.785 107.482 107.482 107.482zM652.048 815.431v-43.492h156.271v43.492z" />
<glyph unicode="&#xe907;" glyph-name="chevron-left" horiz-adv-x="608" d="M510.218-64l-510.218 510.218 513.782 513.782 94.468-94.468-419.314-419.314 415.749-415.749-94.468-94.468z" />
<glyph unicode="&#xe908;" glyph-name="chevron-right" horiz-adv-x="608" d="M94.468-64l-94.468 94.468 419.314 419.314-415.749 415.749 94.468 94.468 510.218-510.218-513.782-513.782z" />
<glyph unicode="&#xe909;" glyph-name="audio" horiz-adv-x="1160" d="M68.338 379.393v136.677c-0.015 0.648-0.024 1.411-0.024 2.176 0 55.276 44.81 100.086 100.086 100.086 0.765 0 1.528-0.009 2.289-0.026l-0.113 0.002h136.677c7.657 1.005 14.569 3.477 20.694 7.131l-0.246-0.136 286.268 227.077v-810.375l-286.268 228.153c-5.823 3.747-12.78 6.254-20.258 6.98l-0.189 0.015h-136.677c-0.484-0.008-1.055-0.013-1.627-0.013-55.573 0-100.624 45.051-100.624 100.624 0 0.572 0.005 1.143 0.014 1.713l-0.001-0.086zM293.263 206.663l331.468-265.82c4.939-2.174 10.698-3.44 16.752-3.44 1.491 0 2.964 0.077 4.416 0.227l-0.182-0.015c0.63-0.067 1.362-0.106 2.102-0.106 4.216 0 8.142 1.243 11.431 3.384l-0.081-0.049c11.195 6.226 18.985 17.403 20.432 30.493l0.016 0.179v954.047c-0.038 13.727-8.361 25.502-20.23 30.589l-0.217 0.083c-4.693 2.217-10.194 3.511-15.998 3.511-8.101 0-15.613-2.521-21.794-6.822l0.125 0.082-330.93-269.049h-119.996c-0.481 0.005-1.049 0.008-1.618 0.008-92.94 0-168.353-75.039-168.959-167.836v-136.735c-0.020-0.962-0.031-2.096-0.031-3.232 0-93.613 75.888-169.501 169.501-169.501 0.389 0 0.778 0.001 1.167 0.004h-0.060zM811.989 325.045c6.071-6.252 14.555-10.132 23.945-10.132s17.875 3.88 23.937 10.124l0.008 0.008c37.252 36.448 60.581 86.994 61.342 142.991l0.002 0.143c0.028 1.232 0.045 2.684 0.045 4.139 0 54.958-23.143 104.51-60.216 139.443l-0.096 0.090c-6.002 5.485-14.027 8.845-22.836 8.845-18.723 0-33.9-15.178-33.9-33.9 0-8.809 3.36-16.834 8.869-22.862l-0.024 0.026c25.454-24.68 41.252-59.193 41.252-97.396s-15.798-72.716-41.217-97.362l-0.035-0.034c-6.228-5.361-10.147-13.254-10.147-22.062s3.919-16.701 10.109-22.030l0.038-0.032zM982.566 782.428c-6.252-6.071-10.132-14.555-10.132-23.945s3.88-17.875 10.124-23.937l0.008-0.008c66.56-66.517 107.732-158.432 107.732-259.964 0-3.195-0.041-6.38-0.122-9.555l0.009 0.47c0.017-1.304 0.026-2.845 0.026-4.387 0-101.979-41.114-194.356-107.67-261.458l0.025 0.025c-6.252-6.071-10.132-14.555-10.132-23.945s3.88-17.875 10.124-23.937l0.008-0.008c6.071-6.252 14.555-10.132 23.945-10.132s17.875 3.88 23.937 10.124l0.008 0.008c80.080 78.741 129.704 188.239 129.704 309.328 0 1.541-0.008 3.081-0.024 4.618l0.002-0.235c0 0.082 0 0.179 0 0.276 0 123.396-49.506 235.229-129.739 316.722l0.057-0.058c-6.071 6.252-14.555 10.132-23.945 10.132s-17.875-3.88-23.937-10.124l-0.008-0.008z" />
<glyph unicode="&#xe90a;" glyph-name="document" horiz-adv-x="782" d="M52.814 881.268c-0.003 0.147-0.005 0.32-0.005 0.494 0 13.604 10.892 24.663 24.43 24.935h443.074v-175.068c0-0.002 0-0.004 0-0.006 0-11.073 8.977-20.050 20.050-20.050 0.172 0 0.343 0.002 0.514 0.006l-0.025-0.001h188.271v-696.848c0.013-0.297 0.020-0.646 0.020-0.996 0-13.437-10.626-24.392-23.934-24.92l-0.048-0.002h-627.897c-13.619 0.538-24.456 11.708-24.456 25.41 0 0.178 0.002 0.357 0.005 0.534v-0.027zM561.391 881.268l136.925-127.633h-136.925zM77.265-51.775h627.897c36.038 0.55 65.041 29.893 65.041 66.010 0 0.174-0.001 0.349-0.002 0.523v-0.027 716.898c0.003 0.134 0.005 0.292 0.005 0.451 0 5.642-2.45 10.712-6.345 14.204l-0.018 0.016-209.299 195.606c-3.586 3.403-8.36 5.586-13.639 5.866l-0.054 0.002h-463.587c-36.038-0.55-65.041-29.893-65.041-66.010 0-0.174 0.001-0.349 0.002-0.523v0.027-866.537c-0.001-0.147-0.002-0.322-0.002-0.496 0-36.117 29.003-65.46 64.989-66.009l0.052-0.001zM705.161-64h-627.897c-42.79 0.551-77.266 35.368-77.266 78.237 0 0.174 0.001 0.348 0.002 0.522v-0.027 866.537c-0.001 0.147-0.002 0.321-0.002 0.495 0 42.869 34.476 77.685 77.214 78.236l0.052 0.001h463.587c8.515-0.142 16.228-3.462 22.028-8.823l-0.022 0.020 209.788-195.606c6.043-6.022 9.783-14.353 9.783-23.557 0-0.142-0.001-0.285-0.003-0.427v0.022-716.898c0.001-0.147 0.002-0.321 0.002-0.495 0-42.869-34.476-77.685-77.214-78.236l-0.052-0.001zM77.265 935.549c-29.286-0.548-52.816-24.418-52.816-53.783 0-0.175 0.001-0.35 0.003-0.525v0.027-866.537c-0.001-0.148-0.002-0.323-0.002-0.498 0-29.365 23.53-53.235 52.765-53.782l0.051-0.001h627.897c29.286 0.548 52.816 24.418 52.816 53.783 0 0.175-0.001 0.35-0.003 0.525v-0.027 716.898c-0.006 2.293-0.939 4.367-2.445 5.868v0l-209.299 195.606c-1.516 1.148-3.323 2-5.289 2.429l-0.090 0.017zM705.161-23.412h-627.897c-20.372 0.544-36.68 17.189-36.68 37.642 0 0.176 0.001 0.352 0.004 0.528v-0.027 866.537c-0.002 0.146-0.003 0.319-0.003 0.492 0 20.355 16.364 36.888 36.654 37.162h455.789v-187.293c-0.011-0.152-0.018-0.328-0.018-0.507 0-4.051 3.284-7.335 7.335-7.335 0.178 0 0.355 0.006 0.53 0.019l-0.024-0.001h200.986v-709.074c0.002-0.149 0.003-0.325 0.003-0.502 0-20.453-16.307-37.097-36.629-37.641l-0.050-0.001zM77.265 894.472c-6.813-0.265-12.235-5.852-12.235-12.705 0-0.175 0.004-0.349 0.011-0.523l-0.001 0.025v-866.537c-0.007-0.156-0.010-0.34-0.010-0.525 0-6.952 5.372-12.648 12.191-13.165l0.044-0.003h627.897c6.904 0.766 12.226 6.568 12.226 13.614 0 0.028 0 0.055 0 0.083v-0.004 684.623h-176.535c-0.147-0.002-0.32-0.004-0.493-0.004-17.555 0-31.786 14.231-31.786 31.786 0 0.173 0.001 0.346 0.004 0.519v-0.026 162.842zM729.612 739.943h-180.447v167.733zM573.616 764.394h93.891l-93.891 87.045z" />
<glyph unicode="&#xe90b;" glyph-name="presentation" horiz-adv-x="2002" d="M1004.518 31.854c-356.482 4.507-674.772 164.257-891.005 414.615l-1.293 1.531c217.526 251.889 535.816 411.639 891.519 416.138l0.78 0.008c353.464-8.628 668.201-167.403 884.059-414.713l1.225-1.433c-217.083-248.743-531.821-407.518-883.798-416.117l-1.486-0.029zM1004.518 960c-399.716-5.244-755.343-189.564-991.024-476.229l-1.804-2.261c-6.998-9.239-11.335-20.835-11.688-33.428l-0.002-0.082c0.059-13.103 5.411-24.945 14.025-33.508l0.002-0.002c236.869-288.514 591.597-472.74 989.525-478.479l0.965-0.011c397.024 7.779 749.61 191.533 984.017 476.241l1.797 2.249c7.089 8.354 11.4 19.259 11.4 31.172s-4.311 22.818-11.458 31.242l0.058-0.070c-235.771 288.329-588.23 473.596-984.228 483.136l-1.586 0.030zM999.842 185.376c-145.473 0.001-263.402 117.93-263.402 263.403s117.93 263.403 263.403 263.403c145.474 0 263.403-117.93 263.403-263.403 0-0.274 0-0.548-0.001-0.822v0.043c0 0 0-0.001 0-0.001 0-145.043-117.581-262.624-262.624-262.624-0.274 0-0.548 0-0.822 0.001h0.042zM999.842 808.816c-0.231 0.001-0.505 0.001-0.779 0.001-198.412 0-359.257-160.845-359.257-359.257s160.845-359.257 359.257-359.257c198.412 0 359.257 160.845 359.257 359.257v0c-2.202 196.299-161.845 354.581-358.457 354.581-0.007 0-0.015 0-0.022 0h0.001z" />
<glyph unicode="&#xe90c;" glyph-name="gallery" horiz-adv-x="1244" d="M1182.705 43.151c-0.566-25.522-21.389-45.994-46.994-45.994-0.004 0-0.008 0-0.012 0h-1027.032c-0.003 0-0.007 0-0.011 0-25.605 0-46.428 20.472-46.993 45.941l-0.001 0.053v642.906c0.566 25.522 21.389 45.994 46.994 45.994 0.004 0 0.008 0 0.012 0h197.622c12.444 0.188 23.14 7.487 28.221 18.005l0.083 0.19 56.103 121.303c7.573 15.907 23.491 26.72 41.942 26.788h379.586c0.091 0.001 0.198 0.001 0.306 0.001 18.258 0 33.975-10.877 41.025-26.505l0.114-0.284 56.103-121.303c4.8-10.8 15.433-18.195 27.794-18.195 0.002 0 0.003 0 0.005 0h198.128c0.151 0.002 0.329 0.003 0.508 0.003 25.504 0 46.213-20.533 46.497-45.97v-642.933zM1135.7 793.714h-175.384l-48.016 101.086c-17.198 38.703-55.303 65.205-99.597 65.205-0.346 0-0.691-0.002-1.036-0.005h-379.019c-43.038-0.107-80.131-25.453-97.27-62.014l-0.278-0.659-50.543-103.613h-175.889c-0.001 0-0.003 0-0.005 0-59.66 0-108.091-48.077-108.662-107.602v-642.96c0.571-59.3 48.776-107.152 108.157-107.152 0.179 0 0.359 0 0.538 0.001h1027.005c0.152-0.001 0.331-0.001 0.51-0.001 59.381 0 107.586 47.852 108.157 107.098v642.96c-0.572 59.579-49.003 107.656-108.663 107.656-0.002 0-0.003 0-0.005 0v0zM622.184 120.987c-146.549 0-265.35 118.801-265.35 265.35s118.801 265.35 265.35 265.35c146.549 0 265.35-118.801 265.35-265.35v0c-0.287-146.433-118.917-265.063-265.323-265.35h-0.027zM622.184 712.845c-0.15 0-0.327 0-0.505 0-180.604 0-327.013-146.409-327.013-327.013s146.409-327.013 327.013-327.013c180.604 0 327.013 146.409 327.013 327.013 0 0.178 0 0.355 0 0.533v-0.028c-0.287 180.209-146.298 326.22-326.48 326.507h-0.028zM248.166 642.59h-96.537c-17.028 0-30.831-13.804-30.831-30.831s13.804-30.831 30.831-30.831h96.537c17.028 0 30.831 13.804 30.831 30.831s-13.804 30.831-30.831 30.831v0z" />
<glyph unicode="&#xe90d;" glyph-name="video" horiz-adv-x="1365" d="M563.388 612.389l304.025-164.658-304.025-164.658zM526.798 703.865c-17.773-1.165-31.748-15.866-31.748-33.832 0-0.024 0-0.048 0-0.072v0.004-443.931c0-0.062-0.001-0.136-0.001-0.21 0-17.396 13.103-31.731 29.977-33.676l0.157-0.015c1.31-0.192 2.823-0.301 4.362-0.301 5.713 0 11.073 1.509 15.704 4.15l-0.156-0.082 409.492 221.696c10.871 5.793 18.145 17.055 18.145 30.016 0 5.963-1.539 11.566-4.242 16.433l0.088-0.173c-3.538 5.088-8.26 9.119-13.779 11.747l-0.212 0.091-409.492 223.849c-4.517 2.766-9.985 4.404-15.835 4.404-0.866 0-1.724-0.036-2.572-0.106l0.111 0.007zM238.915 891.662h887.323c0.321 0.002 0.7 0.003 1.080 0.003 93.613 0 169.501-75.888 169.501-169.501 0-0.38-0.001-0.759-0.004-1.138v0.058-546.169c0.002-0.321 0.003-0.7 0.003-1.080 0-93.613-75.888-169.501-169.501-169.501-0.38 0-0.759 0.001-1.138 0.004h-887.265c-0.321-0.002-0.7-0.003-1.080-0.003-93.613 0-169.501 75.888-169.501 169.501 0 0.38 0.001 0.759 0.004 1.138v-0.058 546.169c-0.002 0.321-0.003 0.7-0.003 1.080 0 93.613 75.888 169.501 169.501 169.501 0.38 0 0.759-0.001 1.138-0.004h-0.058zM238.915 960c-131.949 0-238.915-106.966-238.915-238.915v0-546.169c0.915-131.253 107.528-237.301 238.91-237.301 0.002 0 0.004 0 0.006 0h887.323c131.949 0 238.915 106.966 238.915 238.915v544.555c0 131.949-106.966 238.915-238.915 238.915v0z" />
<glyph unicode="&#xe90e;" glyph-name="twitter" d="M1003.52-43.52h-983.040v979.627h979.627v-979.627zM81.92 14.507h863.573v863.573h-863.573v-863.573zM402.773 171.52c221.867 0 344.747 184.32 344.747 344.747 0 6.827 0 10.24 0 17.067 23.893 17.067 44.373 37.547 61.44 61.44-20.48-10.24-44.373-17.067-68.267-20.48 23.893 13.653 44.373 37.547 54.613 68.267-23.893-13.653-47.787-23.893-78.507-30.72-20.48 23.893-54.613 37.547-88.747 37.547-68.267 0-119.467-54.613-119.467-119.467 0-10.24 0-17.067 3.413-27.307-98.987 3.413-191.147 54.613-249.173 126.293-10.24-17.067-17.067-37.547-17.067-61.44 0-40.96 20.48-78.507 54.613-102.4-20.48 0-37.547 6.827-54.613 13.653 0 0 0 0 0 0 0-58.027 40.96-105.813 95.573-119.467-10.24-3.413-20.48-3.413-30.72-3.413-6.827 0-17.067 0-23.893 3.413 13.653-47.787 58.027-81.92 109.227-81.92-40.96-34.133-92.16-51.2-150.187-51.2-10.24 0-20.48 0-27.307 0 51.2-34.133 116.053-54.613 184.32-54.613z" />
<glyph unicode="&#xe90f;" glyph-name="tiktok" d="M1003.52-43.52h-983.040v979.627h979.627v-979.627zM81.92 14.507h863.573v863.573h-863.573v-863.573zM754.347 567.467c0 3.413 0 3.413 0 0-10.24 3.413-13.653 3.413-20.48 3.413-23.893 3.413-95.573 40.96-109.227 105.813 0 0-3.413 17.067-3.413 23.893 0 3.413 0 3.413-3.413 3.413 0 0 0 0-3.413 0-27.307 0-58.027 0-85.333 0-6.827 0-3.413 0-3.413-3.413 0-122.88 0-249.173 0-372.053 0-3.413 0-10.24 0-13.653-3.413-23.893-17.067-44.373-37.547-54.613-17.067-10.24-37.547-13.653-58.027-10.24-6.827 0-13.653 3.413-20.48 6.827 0 0 0 0 0 0-3.413 3.413-3.413 3.413-6.827 3.413-27.307 17.067-37.547 44.373-34.133 75.093s23.893 54.613 54.613 64.853c10.24 3.413 17.067 3.413 27.307 3.413 6.827 0 13.653 0 17.067-3.413 3.413 0 3.413 0 3.413 3.413 0 0 0 0 0 3.413 0 23.893 0 71.68 0 71.68 0 6.827 0 13.653 0 20.48 0 3.413 0 3.413-3.413 3.413-10.24 0-23.893 0-34.133 0-17.067 0-30.72-3.413-47.787-10.24-23.893-10.24-44.373-20.48-64.853-40.96-17.067-13.653-27.307-34.133-37.547-54.613s-13.653-37.547-13.653-61.44c0-10.24 0-17.067 0-27.307 0-13.653 3.413-23.893 6.827-37.547 10.24-34.133 30.72-61.44 58.027-85.333 3.413-3.413 6.827-3.413 10.24-6.827 0 0 0 0 0 0s3.413-3.413 3.413-3.413 10.24-6.827 13.653-10.24c30.72-17.067 64.853-20.48 98.987-17.067 51.2 6.827 88.747 27.307 119.467 61.44 27.307 34.133 40.96 71.68 40.96 116.053 0 61.44 0 122.88 0 184.32 0 0 0 3.413 0 3.413s3.413 0 3.413-3.413c23.893-13.653 47.787-27.307 75.093-30.72 17.067-3.413 30.72-6.827 47.787-6.827 3.413 0 6.827 0 6.827 6.827 0 23.893 0 81.92 0 88.747z" />
<glyph unicode="&#xe910;" glyph-name="telegram" d="M1003.52-43.52h-983.040v979.627h979.627v-979.627zM81.92 14.507h863.573v863.573h-863.573v-863.573zM727.040 564.053c-3.413 6.827-3.413 6.827-6.827 6.827-6.827 3.413-20.48 0-20.48 0s-436.907-157.013-464.213-174.080c-6.827-3.413-6.827-6.827-6.827-6.827-3.413-13.653 10.24-20.48 10.24-20.48l112.64-37.547c0 0 3.413 0 6.827 0 27.307 17.067 259.413 163.84 273.067 167.253 3.413 0 3.413 0 3.413 0-6.827-20.48-208.213-197.973-208.213-197.973s0 0 0-3.413v0l-10.24-112.64c0 0-3.413-34.133 30.72 0 23.893 23.893 47.787 44.373 58.027 54.613 37.547-27.307 81.92-58.027 98.987-71.68 10.24-6.827 17.067-10.24 23.893-10.24 17.067 0 20.48 20.48 20.48 20.48s78.507 320.853 81.92 365.227c0 3.413 0 6.827 0 10.24-3.413 3.413-3.413 10.24-3.413 10.24z" />
<glyph unicode="&#xe911;" glyph-name="research-gate" d="M1003.52-43.52h-983.040v979.627h979.627v-979.627zM81.92 14.507h863.573v863.573h-863.573v-863.573zM252.587 567.467c68.267 0 136.533 3.413 204.8 0 61.44-3.413 95.573-40.96 102.4-95.573 6.827-51.2-27.307-102.4-78.507-122.88-3.413-3.413-10.24-3.413-17.067-6.827 34.133-58.027 71.68-112.64 119.467-157.013 13.653-10.24 30.72-17.067 47.787-23.893 3.413-10.24 0-17.067-17.067-17.067-44.373-3.413-81.92 6.827-109.227 44.373-30.72 40.96-61.44 85.333-88.747 133.12-6.827 13.653-17.067 20.48-34.133 20.48-10.24 0-20.48 0-30.72 0 0-20.48 0-37.547 0-58.027 0-27.307 0-51.2 3.413-75.093 3.413-20.48 10.24-27.307 30.72-30.72 3.413 0 10.24-3.413 13.653-3.413 13.653 0 17.067-6.827 13.653-20.48-54.613 0-109.227 0-167.253 0 0 6.827 0 10.24 0 17.067 6.827 0 10.24 3.413 17.067 3.413 27.307 6.827 34.133 13.653 37.547 44.373 0 47.787 0 92.16 0 139.947s0 95.573 0 146.773c0 37.547-6.827 44.373-40.96 51.2-10.24-10.24-10.24-3.413-6.827 10.24zM358.4 366.080c27.307 0 51.2-3.413 75.093 0 44.373 6.827 71.68 40.96 71.68 85.333s-23.893 75.093-68.267 81.92c-20.48 3.413-44.373 0-64.853 0-3.413 0-10.24-6.827-10.24-10.24-3.413-47.787-3.413-102.4-3.413-157.013zM768 673.28c-6.827-3.413-13.653-10.24-23.893-17.067-3.413 3.413-6.827 10.24-13.653 13.653-17.067 13.653-34.133 20.48-54.613 10.24-20.48-6.827-30.72-23.893-30.72-44.373 0-23.893 0-47.787 0-71.68 0-30.72 17.067-47.787 40.96-47.787 27.307-3.413 47.787 13.653 54.613 44.373 0 6.827 0 13.653 3.413 20.48-13.653 0-27.307 0-44.373 0 0 10.24 0 17.067 0 27.307 20.48 0 44.373 0 64.853 0 3.413 0 6.827-6.827 6.827-10.24 0-20.48 0-40.96-3.413-61.44-3.413-23.893-20.48-40.96-44.373-44.373-20.48-3.413-40.96-3.413-58.027-3.413-30.72 3.413-47.787 23.893-51.2 54.613-3.413 37.547-3.413 75.093 0 112.64 3.413 34.133 30.72 58.027 71.68 61.44 37.547 3.413 68.267-13.653 81.92-44.373z" />
<glyph unicode="&#xe912;" glyph-name="orcid" d="M1003.52-43.52h-983.040v979.627h979.627v-979.627zM81.92 14.507h863.573v863.573h-863.573v-863.573zM361.813 577.707c0-27.307-20.48-44.373-44.373-44.373s-44.373 20.48-44.373 44.373c0 27.307 20.48 44.373 44.373 44.373s44.373-17.067 44.373-44.373zM354.987 478.72v-354.987h-75.093v354.987h75.093zM781.653 301.227c0-102.4-78.507-177.493-184.32-177.493h-143.36v354.987h143.36c109.227 0 184.32-75.093 184.32-177.493zM723.627 301.227c0 71.68-54.613 122.88-122.88 122.88h-85.333v-245.76h85.333c68.267 0 122.88 51.2 122.88 122.88z" />
<glyph unicode="&#xe913;" glyph-name="linkedin" d="M1003.52-43.52h-983.040v979.627h979.627v-979.627zM81.92 14.507h863.573v863.573h-863.573v-863.573zM337.92 577.707c0-27.307-20.48-44.373-44.373-44.373s-44.373 20.48-44.373 44.373c0 27.307 20.48 44.373 44.373 44.373s44.373-17.067 44.373-44.373zM331.093 478.72v-354.987h-78.507v354.987h78.507zM781.653 345.6v-218.453h-75.093v197.973c0 54.613-30.72 85.333-85.333 85.333-58.027 0-95.573-40.96-98.987-95.573v-187.733h-78.507v351.573h75.093v-68.267c23.893 47.787 71.68 71.68 129.707 71.68 81.92 0 133.12-51.2 133.12-136.533z" />
<glyph unicode="&#xe914;" glyph-name="instagram" d="M1003.52-43.52h-983.040v979.627h979.627v-979.627zM81.92 14.507h863.573v863.573h-863.573v-863.573zM628.053 110.080h-242.347c-109.227 0-194.56 88.747-194.56 194.56v211.627c0 109.227 88.747 194.56 194.56 194.56h242.347c109.227 0 194.56-88.747 194.56-194.56v-211.627c3.413-105.813-85.333-194.56-194.56-194.56zM385.707 663.040c-78.507 0-143.36-64.853-143.36-143.36v-211.627c0-78.507 64.853-143.36 143.36-143.36h242.347c78.507 0 143.36 64.853 143.36 143.36v211.627c0 78.507-64.853 143.36-143.36 143.36h-242.347zM508.587 246.613c-92.16 0-167.253 75.093-167.253 167.253s75.093 167.253 167.253 167.253 167.253-75.093 167.253-167.253-75.093-167.253-167.253-167.253zM508.587 526.507c-64.853 0-116.053-51.2-116.053-116.053s51.2-116.053 116.053-116.053 116.053 51.2 116.053 116.053-54.613 116.053-116.053 116.053zM709.973 574.293c0-16.966-13.754-30.72-30.72-30.72s-30.72 13.754-30.72 30.72c0 16.966 13.754 30.72 30.72 30.72s30.72-13.754 30.72-30.72z" />
<glyph unicode="&#xe915;" glyph-name="facebook" d="M1003.52-43.52h-983.040v979.627h979.627v-979.627zM81.92 14.507h863.573v863.573h-863.573v-863.573zM525.653 591.36v-51.2h112.64v-68.267h-112.64v-344.747h-92.16v341.333h-58.027v68.267h58.027v40.96c0 98.987 75.093 146.773 146.773 146.773 34.133 0 68.267-10.24 95.573-30.72l-34.133-71.68c-17.067 13.653-40.96 20.48-58.027 20.48-30.72 6.827-58.027-10.24-58.027-51.2z" />
<glyph unicode="&#xe916;" glyph-name="academia-edu" d="M1003.52-43.52h-983.040v979.627h979.627v-979.627zM81.92 14.507h863.573v863.573h-863.573v-863.573zM423.253 622.080c44.373 0 85.333 0 129.707 0 58.027-146.773 119.467-296.96 177.493-447.147 6.827-17.067 27.307-23.893 40.96-23.893v-27.307c-78.507 0-153.6 0-232.107 0 0 6.827 0 17.067 0 23.893 17.067 0 37.547 0 51.2 13.653 10.24 13.653 3.413 27.307 0 40.96-6.827 23.893-17.067 44.373-27.307 68.267-61.44 0-119.467 0-180.907 0-6.827-20.48-13.653-40.96-23.893-61.44-6.827-10.24-10.24-23.893-10.24-37.547 0-6.827 6.827-13.653 13.653-17.067 10.24-3.413 23.893-6.827 37.547-6.827 0-10.24 0-17.067 0-27.307-47.787 0-98.987 0-146.773 0 0 10.24 0 17.067 0 27.307 13.653 3.413 30.72 6.827 37.547 20.48 51.2 129.707 102.4 259.413 153.6 389.12 0 3.413 0 6.827 0 10.24-6.827 20.48-13.653 37.547-20.48 54.613v0zM399.36 321.707c47.787 0 95.573 0 143.36 0-23.893 61.44-47.787 119.467-71.68 180.907-23.893-58.027-44.373-119.467-71.68-180.907z" />
</font>
</defs>
</svg>
