<svg xmlns="http://www.w3.org/2000/svg" xmlns:xlink="http://www.w3.org/1999/xlink" viewBox="0 0 52.36 58.6"><defs><style>.cls-1,.cls-3{fill:none;}.cls-2{clip-path:url(#clip-path);}.cls-3{stroke:#3c3c3b;stroke-linecap:round;stroke-miterlimit:10;stroke-width:2px;}</style><clipPath id="clip-path" transform="translate(0 0)"><rect class="cls-1" width="52.36" height="58.6"/></clipPath></defs><title>Asset 3</title><g id="Layer_2" data-name="Layer 2"><g id="Layer_1-2" data-name="Layer 1"><g class="cls-2"><path class="cls-3" d="M49.36,49.23h0A28.34,28.34,0,0,1,1,29.1a6.54,6.54,0,1,1,13.08,0h0A15.3,15.3,0,0,0,29.34,44.43a15.14,15.14,0,0,0,10.43-4.15,6.57,6.57,0,1,1,9.6,9Z" transform="translate(0 0)"/><path class="cls-3" d="M51.27,13.95a6.58,6.58,0,0,1-6.56,6.6,6.51,6.51,0,0,1-4.62-1.92h0a15.23,15.23,0,0,0-26,10.89h0A6.54,6.54,0,1,1,1,29.52H1A28.34,28.34,0,0,1,48.86,8.84,6.6,6.6,0,0,1,51.27,13.95Z" transform="translate(0 0)"/><circle class="cls-3" cx="7.79" cy="29.31" r="6.79"/><circle class="cls-3" cx="44.57" cy="44.35" r="6.79"/><circle class="cls-3" cx="44.57" cy="14.25" r="6.79"/></g></g></g></svg>