<svg xmlns="http://www.w3.org/2000/svg" xmlns:xlink="http://www.w3.org/1999/xlink" viewBox="0 0 215 98.44"><defs><style>.cls-1,.cls-3{fill:none;}.cls-2{clip-path:url(#clip-path);}.cls-3{stroke:#3c3c3b;stroke-miterlimit:10;stroke-width:2px;}.cls-4{fill:#3c3c3b;}</style><clipPath id="clip-path"><rect class="cls-1" width="215" height="98.44"/></clipPath></defs><title>Asset 1</title><g id="Layer_2" data-name="Layer 2"><g id="Layer_1-2" data-name="Layer 1"><g class="cls-2"><path class="cls-3" d="M83.29,83.29l0,0A48.22,48.22,0,0,1,1,49.24a11.13,11.13,0,1,1,22.26,0h0A25.94,25.94,0,0,0,67,68.14,11.15,11.15,0,1,1,83.29,83.29Z"/><path class="cls-3" d="M86.53,22.9a11.16,11.16,0,0,1-19,7.91l0,0A25.95,25.95,0,0,0,23.26,49.22v0h0A11.13,11.13,0,1,1,1,49.24v0A48.22,48.22,0,0,1,82.44,14.27,11.14,11.14,0,0,1,86.53,22.9Z"/><circle class="cls-3" cx="12.13" cy="49.24" r="11.13"/><circle class="cls-3" cx="75.55" cy="75.17" r="11.13"/><circle class="cls-3" cx="75.55" cy="23.27" r="11.13"/><path class="cls-4" d="M140.22,29.15a3.73,3.73,0,0,0-3-1.48,3.67,3.67,0,0,0-1.46.29,3.53,3.53,0,0,0-1.15.78,3.58,3.58,0,0,0-.76,1.17,3.83,3.83,0,0,0-.28,1.46,3.88,3.88,0,0,0,.28,1.48,3.57,3.57,0,0,0,3.35,2.25,4,4,0,0,0,3-1.43v4.14l-.36.13a10.34,10.34,0,0,1-1.5.42,7.2,7.2,0,0,1-1.37.13,7,7,0,0,1-4.92-2,7.35,7.35,0,0,1-1.56-2.27,7.27,7.27,0,0,1,0-5.71A7.11,7.11,0,0,1,137,24.27a7.39,7.39,0,0,1,1.58.17,9.59,9.59,0,0,1,1.63.53Z"/><path class="cls-4" d="M145.18,33.49a2.08,2.08,0,0,0,.17.85,2.25,2.25,0,0,0,.45.67,1.94,1.94,0,0,0,.66.45,2.13,2.13,0,0,0,1.62,0,2,2,0,0,0,.66-.45,2.25,2.25,0,0,0,.45-.67,2,2,0,0,0,.17-.83,2,2,0,0,0-.17-.81,2.26,2.26,0,0,0-.45-.67,2,2,0,0,0-.66-.45,2.14,2.14,0,0,0-1.62,0,2,2,0,0,0-.66.45,2.29,2.29,0,0,0-.45.66,1.92,1.92,0,0,0-.17.8m-3.41,0a4.45,4.45,0,0,1,.41-1.9A4.65,4.65,0,0,1,143.33,30a5.42,5.42,0,0,1,1.74-1,6.28,6.28,0,0,1,2.2-.37,6.39,6.39,0,0,1,2.19.37,5.4,5.4,0,0,1,1.75,1,4.56,4.56,0,0,1,1.15,1.55,4.74,4.74,0,0,1,.41,2,4.65,4.65,0,0,1-.42,2,4.73,4.73,0,0,1-1.15,1.55,5.11,5.11,0,0,1-1.76,1,6.72,6.72,0,0,1-2.22.36,6.43,6.43,0,0,1-2.18-.36,5,5,0,0,1-1.72-1,4.71,4.71,0,0,1-1.13-1.58,5,5,0,0,1-.41-2"/><path class="cls-4" d="M154.63,29h3.23v1.13a4.18,4.18,0,0,1,3-1.27,3.45,3.45,0,0,1,3.11,1.71A3.47,3.47,0,0,1,167,28.79a3.87,3.87,0,0,1,1.21.19,2.49,2.49,0,0,1,1,.59,2.81,2.81,0,0,1,.65,1,4.43,4.43,0,0,1,.24,1.55v5.94h-3.23V33.59a5.49,5.49,0,0,0-.1-1.14,1.79,1.79,0,0,0-.29-.7.94.94,0,0,0-.44-.34,1.59,1.59,0,0,0-.54-.09q-1.55,0-1.55,2.27v4.52h-3.23V33.59a6.11,6.11,0,0,0-.09-1.15,2.13,2.13,0,0,0-.26-.72.87.87,0,0,0-.44-.37,2,2,0,0,0-1.2,0,1,1,0,0,0-.47.35,1.9,1.9,0,0,0-.32.71,4.92,4.92,0,0,0-.12,1.19v4.52h-3.23Z"/><path class="cls-4" d="M172.34,29h3.23v1.13a4.18,4.18,0,0,1,3-1.27,3.45,3.45,0,0,1,3.11,1.71,3.47,3.47,0,0,1,3.11-1.73A3.87,3.87,0,0,1,186,29a2.49,2.49,0,0,1,1,.59,2.82,2.82,0,0,1,.65,1,4.43,4.43,0,0,1,.24,1.55v5.94H184.6V33.59a5.49,5.49,0,0,0-.1-1.14,1.79,1.79,0,0,0-.29-.7.94.94,0,0,0-.44-.34,1.59,1.59,0,0,0-.54-.09q-1.55,0-1.55,2.27v4.52h-3.23V33.59a6.11,6.11,0,0,0-.09-1.15,2.13,2.13,0,0,0-.26-.72.87.87,0,0,0-.44-.37,2,2,0,0,0-1.2,0,1,1,0,0,0-.47.35,1.9,1.9,0,0,0-.32.71,4.92,4.92,0,0,0-.12,1.19v4.52h-3.23Z"/><path class="cls-4" d="M193.1,33.49a2.06,2.06,0,0,0,.17.85,2.25,2.25,0,0,0,.45.67,1.94,1.94,0,0,0,.66.45,2.13,2.13,0,0,0,1.63,0,2,2,0,0,0,.66-.45,2.27,2.27,0,0,0,.45-.67,2,2,0,0,0,.17-.83,2,2,0,0,0-.17-.81,2.27,2.27,0,0,0-.45-.67,2,2,0,0,0-.66-.45,2.14,2.14,0,0,0-1.62,0,2,2,0,0,0-.66.45,2.29,2.29,0,0,0-.45.66,1.91,1.91,0,0,0-.17.8m-3.41,0a4.45,4.45,0,0,1,.41-1.9A4.65,4.65,0,0,1,191.24,30,5.42,5.42,0,0,1,193,29a6.28,6.28,0,0,1,2.21-.37,6.39,6.39,0,0,1,2.19.37,5.41,5.41,0,0,1,1.75,1,4.56,4.56,0,0,1,1.15,1.55,4.74,4.74,0,0,1,.41,2,4.67,4.67,0,0,1-.42,2,4.74,4.74,0,0,1-1.15,1.55,5.13,5.13,0,0,1-1.76,1,6.73,6.73,0,0,1-2.22.36,6.43,6.43,0,0,1-2.18-.36,5,5,0,0,1-1.72-1,4.71,4.71,0,0,1-1.13-1.58,5,5,0,0,1-.41-2"/><path class="cls-4" d="M202.54,29h3.23v1.16A3.55,3.55,0,0,1,207.11,29a4.2,4.2,0,0,1,1.59-.28,4,4,0,0,1,1.65.31,3.3,3.3,0,0,1,1.17.88,2.54,2.54,0,0,1,.54,1,5.41,5.41,0,0,1,.14,1.3v5.82H209V33.49a5,5,0,0,0-.1-1.1,1.36,1.36,0,0,0-.35-.67,1.24,1.24,0,0,0-.48-.3,1.82,1.82,0,0,0-.57-.09,1.6,1.6,0,0,0-1.26.49,2,2,0,0,0-.44,1.4v4.89h-3.23Z"/></g><polygon class="cls-4" points="134.03 46.07 134.03 56.57 138.22 56.57 138.22 59.53 130.53 59.53 130.53 46.07 134.03 46.07"/><g class="cls-2"><path class="cls-4" d="M142.72,54.93a2.14,2.14,0,0,0,.6,1.5,2,2,0,0,0,.66.45,2.13,2.13,0,0,0,.83.16,2.09,2.09,0,0,0,.81-.16,2,2,0,0,0,.66-.45,2.33,2.33,0,0,0,.45-.66,1.93,1.93,0,0,0,.17-.8,2,2,0,0,0-.17-.81,2.31,2.31,0,0,0-.45-.67,2,2,0,0,0-.66-.45,2.09,2.09,0,0,0-.81-.16A2.13,2.13,0,0,0,144,53a2,2,0,0,0-.66.45,2.2,2.2,0,0,0-.44.65,1.94,1.94,0,0,0-.16.79m4.07-4.55H150v9.16h-3.25v-1a3.39,3.39,0,0,1-2.8,1.3,4.56,4.56,0,0,1-1.84-.36,4.42,4.42,0,0,1-1.46-1,4.73,4.73,0,0,1-1-1.55,5.31,5.31,0,0,1-.35-1.95,5.16,5.16,0,0,1,.34-1.87,4.78,4.78,0,0,1,.95-1.54,4.39,4.39,0,0,1,3.3-1.43,3.73,3.73,0,0,1,2.84,1.2Z"/><path class="cls-4" d="M152.23,50.37h3.23v1.16a3.55,3.55,0,0,1,1.34-1.08,4.2,4.2,0,0,1,1.59-.28,4,4,0,0,1,1.65.31,3.29,3.29,0,0,1,1.17.88,2.54,2.54,0,0,1,.54,1,5.41,5.41,0,0,1,.14,1.3v5.82h-3.23V54.91a5,5,0,0,0-.1-1.1,1.36,1.36,0,0,0-.35-.67,1.23,1.23,0,0,0-.48-.3,1.81,1.81,0,0,0-.57-.09,1.6,1.6,0,0,0-1.26.49,2,2,0,0,0-.44,1.4v4.89h-3.23Z"/><path class="cls-4" d="M167.09,54.93a2.14,2.14,0,0,0,.6,1.5,2,2,0,0,0,.66.45,2.13,2.13,0,0,0,.83.16,2.08,2.08,0,0,0,.81-.16,2,2,0,0,0,.66-.45,2.33,2.33,0,0,0,.45-.66,1.94,1.94,0,0,0,.17-.8,2,2,0,0,0-.17-.81,2.3,2.3,0,0,0-.45-.67A2,2,0,0,0,170,53a2.13,2.13,0,0,0-1.62,0,1.94,1.94,0,0,0-.66.45,2.36,2.36,0,0,0-.45.65,1.87,1.87,0,0,0-.17.8m4.07-10.21h3.25V59.53h-3.25v-1a3.39,3.39,0,0,1-2.8,1.3,4.45,4.45,0,0,1-1.84-.37,4.54,4.54,0,0,1-1.46-1,4.73,4.73,0,0,1-1-1.55,5.46,5.46,0,0,1,0-3.79,4.67,4.67,0,0,1,.94-1.54,4.44,4.44,0,0,1,3.32-1.43,3.73,3.73,0,0,1,2.84,1.2Z"/><path class="cls-4" d="M182.67,52.73a3.77,3.77,0,0,0-1.75-.46,1.32,1.32,0,0,0-.72.18.55.55,0,0,0-.28.48.63.63,0,0,0,0,.26.45.45,0,0,0,.2.19,1.7,1.7,0,0,0,.45.16l.78.18a3.71,3.71,0,0,1,2,1,2.43,2.43,0,0,1,.66,1.76,3.19,3.19,0,0,1-.32,1.45,3.08,3.08,0,0,1-.89,1.08,4.25,4.25,0,0,1-1.37.68,6.15,6.15,0,0,1-1.77.24A7.18,7.18,0,0,1,176,58.82l1.18-2.28a4.6,4.6,0,0,0,2.57.93,1.27,1.27,0,0,0,.73-.2.59.59,0,0,0,.29-.5.82.82,0,0,0,0-.29.48.48,0,0,0-.19-.21,1.46,1.46,0,0,0-.42-.18l-.72-.17a4.14,4.14,0,0,1-2.1-.9,2.23,2.23,0,0,1-.6-1.65A3.24,3.24,0,0,1,177,52a2.86,2.86,0,0,1,.82-1,3.85,3.85,0,0,1,1.29-.66,5.78,5.78,0,0,1,1.69-.23,7.67,7.67,0,0,1,2.95.59Z"/></g><polygon class="cls-4" points="130.53 80.95 130.53 67.49 134.03 67.49 140.49 75.72 140.49 67.49 143.97 67.49 143.97 80.95 140.49 80.95 134.03 72.72 134.03 80.95 130.53 80.95"/><g class="cls-2"><path class="cls-4" d="M153.4,75a2,2,0,0,0-.66-1.09,2,2,0,0,0-2.44,0,1.78,1.78,0,0,0-.6,1.11Zm-3.78,1.87q0,2.09,2,2.09a1.75,1.75,0,0,0,1.59-.86h3.12q-.95,3.14-4.73,3.14a6.22,6.22,0,0,1-2.12-.35,4.75,4.75,0,0,1-1.65-1,4.41,4.41,0,0,1-1.06-1.54,5.12,5.12,0,0,1-.37-2,5.66,5.66,0,0,1,.36-2.06,4.35,4.35,0,0,1,1-1.56,4.52,4.52,0,0,1,1.6-1,6,6,0,0,1,2.12-.35,5.91,5.91,0,0,1,2.09.35,4.23,4.23,0,0,1,1.57,1,4.38,4.38,0,0,1,1,1.62,6.4,6.4,0,0,1,.34,2.15v.34Z"/></g><polygon class="cls-4" points="161.98 74.49 161.98 80.95 158.75 80.95 158.75 74.49 157.68 74.49 157.68 71.8 158.75 71.8 158.75 69.05 161.98 69.05 161.98 71.8 163.82 71.8 163.82 74.49 161.98 74.49"/><polygon class="cls-4" points="167.53 71.8 169.73 76.62 172.01 71.8 174.05 71.8 176.33 76.76 178.64 71.8 182.22 71.8 177.44 80.95 175.28 80.95 173 75.94 170.82 80.95 168.62 80.95 163.93 71.8 167.53 71.8"/><g class="cls-2"><path class="cls-4" d="M185.92,76.33a2.08,2.08,0,0,0,.17.85,2.25,2.25,0,0,0,.45.67,1.94,1.94,0,0,0,.66.45,2.13,2.13,0,0,0,1.62,0,2,2,0,0,0,.66-.45,2.27,2.27,0,0,0,.45-.67,2,2,0,0,0,.17-.83,2,2,0,0,0-.17-.81,2.27,2.27,0,0,0-.45-.67,2,2,0,0,0-.66-.45,2.14,2.14,0,0,0-1.62,0,2,2,0,0,0-.66.45,2.29,2.29,0,0,0-.45.66,1.92,1.92,0,0,0-.17.8m-3.41,0a4.45,4.45,0,0,1,.41-1.9,4.65,4.65,0,0,1,1.14-1.53,5.42,5.42,0,0,1,1.74-1,6.28,6.28,0,0,1,2.2-.37,6.39,6.39,0,0,1,2.19.37,5.4,5.4,0,0,1,1.75,1,4.56,4.56,0,0,1,1.15,1.55,4.74,4.74,0,0,1,.41,2,4.65,4.65,0,0,1-.42,2,4.73,4.73,0,0,1-1.15,1.55,5.14,5.14,0,0,1-1.76,1,6.72,6.72,0,0,1-2.22.36,6.43,6.43,0,0,1-2.18-.36,5,5,0,0,1-1.72-1,4.71,4.71,0,0,1-1.13-1.58,5,5,0,0,1-.41-2"/><path class="cls-4" d="M195.36,71.8h3.23v1.5A3.72,3.72,0,0,1,199.86,72a3.42,3.42,0,0,1,1.75-.44h.28a2,2,0,0,1,.35,0v3.09a3.06,3.06,0,0,0-1.39-.32,2.08,2.08,0,0,0-1.69.67,3,3,0,0,0-.56,2V81h-3.23Z"/></g><polygon class="cls-4" points="203.68 66.14 203.68 80.95 206.91 80.95 206.91 77.22 210.47 80.95 215 80.95 210.15 76.03 214.73 71.8 210.31 71.8 206.91 75.1 206.91 66.14 203.68 66.14"/></g></g></svg>