<svg xmlns="http://www.w3.org/2000/svg" xmlns:xlink="http://www.w3.org/1999/xlink" viewBox="0 0 50.23 56.54"><defs><style>.cls-1{fill:none;}.cls-2{clip-path:url(#clip-path);}.cls-3{fill:#e76456;}.cls-4{fill:#efab61;}.cls-5{fill:#727f34;}.cls-6{fill:#184b7d;}.cls-7{fill:#b2d7cf;}</style><clipPath id="clip-path"><rect class="cls-1" width="50.23" height="56.54"/></clipPath></defs><title>Asset 4</title><g id="Layer_2" data-name="Layer 2"><g id="Layer_1-2" data-name="Layer 1"><g class="cls-2"><path class="cls-3" d="M48.25,48.25h0A28.27,28.27,0,0,1,0,28.28a6.52,6.52,0,1,1,13,0h0A15.21,15.21,0,0,0,38.67,39.37a6.54,6.54,0,1,1,9.57,8.88"/><path class="cls-4" d="M50.15,12.84A6.54,6.54,0,0,1,39,17.48h0a15.21,15.21,0,0,0-25.93,10.8h0a6.52,6.52,0,1,1-13,0H0A28.27,28.27,0,0,1,47.75,7.78a6.53,6.53,0,0,1,2.4,5.06"/><path class="cls-5" d="M13.05,28.28a6.53,6.53,0,1,1-6.53-6.53,6.53,6.53,0,0,1,6.53,6.53"/><path class="cls-6" d="M50.23,43.48A6.53,6.53,0,1,1,43.71,37a6.53,6.53,0,0,1,6.53,6.53"/><path class="cls-7" d="M50.23,13.06a6.53,6.53,0,1,1-6.53-6.53,6.53,6.53,0,0,1,6.53,6.53"/></g></g></g></svg>