<svg xmlns="http://www.w3.org/2000/svg" xmlns:xlink="http://www.w3.org/1999/xlink" viewBox="0 0 213.91 96.44"><defs><style>.cls-1{fill:none;}.cls-2{clip-path:url(#clip-path);}.cls-3{fill:#e76456;}.cls-4{fill:#efab61;}.cls-5{fill:#727f34;}.cls-6{fill:#184b7d;}.cls-7{fill:#b2d7cf;}.cls-8{fill:#3c3c3b;}</style><clipPath id="clip-path"><rect class="cls-1" width="213.91" height="96.44"/></clipPath></defs><title>Asset 2</title><g id="Layer_2" data-name="Layer 2"><g id="Layer_1-2" data-name="Layer 1"><g class="cls-2"><path class="cls-3" d="M82.29,82.29l0,0A48.22,48.22,0,0,1,0,48.24a11.13,11.13,0,1,1,22.26,0h0A25.94,25.94,0,0,0,66,67.14,11.15,11.15,0,1,1,82.29,82.29"/><path class="cls-4" d="M85.53,21.9a11.16,11.16,0,0,1-19,7.91l0,0A25.95,25.95,0,0,0,22.26,48.22v0h0A11.13,11.13,0,1,1,0,48.24v0A48.22,48.22,0,0,1,81.44,13.27a11.14,11.14,0,0,1,4.09,8.63"/><path class="cls-5" d="M22.27,48.24A11.13,11.13,0,1,1,11.13,37.11,11.13,11.13,0,0,1,22.27,48.24"/><path class="cls-6" d="M85.68,74.17A11.13,11.13,0,1,1,74.55,63,11.13,11.13,0,0,1,85.68,74.17"/><path class="cls-7" d="M85.68,22.27A11.13,11.13,0,1,1,74.55,11.14,11.13,11.13,0,0,1,85.68,22.27"/><path class="cls-8" d="M139.13,28.34a3.73,3.73,0,0,0-3-1.48,3.67,3.67,0,0,0-1.46.29,3.53,3.53,0,0,0-1.15.78,3.58,3.58,0,0,0-.76,1.17,3.83,3.83,0,0,0-.28,1.46,3.88,3.88,0,0,0,.28,1.48,3.57,3.57,0,0,0,3.35,2.25,4,4,0,0,0,3-1.43V37l-.36.13a10.34,10.34,0,0,1-1.5.42,7.2,7.2,0,0,1-1.37.13,7,7,0,0,1-4.92-2,7.35,7.35,0,0,1-1.56-2.27,7.27,7.27,0,0,1,0-5.71,7.11,7.11,0,0,1,6.51-4.22,7.39,7.39,0,0,1,1.58.17,9.59,9.59,0,0,1,1.63.53Z"/><path class="cls-8" d="M144.09,32.68a2.08,2.08,0,0,0,.17.85,2.25,2.25,0,0,0,.45.67,1.94,1.94,0,0,0,.66.45,2.13,2.13,0,0,0,1.62,0,2,2,0,0,0,.66-.45,2.25,2.25,0,0,0,.45-.67,2,2,0,0,0,.17-.83,2,2,0,0,0-.17-.81,2.26,2.26,0,0,0-.45-.67,2,2,0,0,0-.66-.45,2.14,2.14,0,0,0-1.62,0,2,2,0,0,0-.66.45,2.29,2.29,0,0,0-.45.66,1.92,1.92,0,0,0-.17.8m-3.41,0a4.45,4.45,0,0,1,.41-1.9,4.65,4.65,0,0,1,1.14-1.53,5.42,5.42,0,0,1,1.74-1,6.28,6.28,0,0,1,2.2-.37,6.39,6.39,0,0,1,2.19.37,5.4,5.4,0,0,1,1.75,1,4.56,4.56,0,0,1,1.15,1.55,4.74,4.74,0,0,1,.41,2,4.65,4.65,0,0,1-.42,2,4.73,4.73,0,0,1-1.15,1.55,5.11,5.11,0,0,1-1.76,1,6.72,6.72,0,0,1-2.22.36,6.43,6.43,0,0,1-2.18-.36,5,5,0,0,1-1.72-1,4.71,4.71,0,0,1-1.13-1.58,5,5,0,0,1-.41-2"/><path class="cls-8" d="M153.53,28.14h3.23v1.13a4.18,4.18,0,0,1,3-1.27,3.45,3.45,0,0,1,3.11,1.71A3.47,3.47,0,0,1,165.94,28a3.87,3.87,0,0,1,1.21.19,2.49,2.49,0,0,1,1,.59,2.81,2.81,0,0,1,.65,1,4.43,4.43,0,0,1,.24,1.55V37.3H165.8V32.78a5.49,5.49,0,0,0-.1-1.14,1.79,1.79,0,0,0-.29-.7.94.94,0,0,0-.44-.34,1.59,1.59,0,0,0-.54-.09q-1.55,0-1.55,2.27V37.3h-3.23V32.78a6.11,6.11,0,0,0-.09-1.15,2.13,2.13,0,0,0-.26-.72.87.87,0,0,0-.44-.37,2,2,0,0,0-1.2,0,1,1,0,0,0-.47.35,1.9,1.9,0,0,0-.32.71,4.92,4.92,0,0,0-.12,1.19V37.3h-3.23Z"/><path class="cls-8" d="M171.24,28.14h3.23v1.13a4.18,4.18,0,0,1,3-1.27,3.45,3.45,0,0,1,3.11,1.71A3.47,3.47,0,0,1,183.65,28a3.87,3.87,0,0,1,1.21.19,2.49,2.49,0,0,1,1,.59,2.82,2.82,0,0,1,.65,1,4.43,4.43,0,0,1,.24,1.55V37.3h-3.23V32.78a5.49,5.49,0,0,0-.1-1.14,1.79,1.79,0,0,0-.29-.7.94.94,0,0,0-.44-.34,1.59,1.59,0,0,0-.54-.09q-1.55,0-1.55,2.27V37.3h-3.23V32.78a6.11,6.11,0,0,0-.09-1.15,2.13,2.13,0,0,0-.26-.72.87.87,0,0,0-.44-.37,2,2,0,0,0-1.2,0,1,1,0,0,0-.47.35,1.9,1.9,0,0,0-.32.71,4.92,4.92,0,0,0-.12,1.19V37.3h-3.23Z"/><path class="cls-8" d="M192,32.68a2.06,2.06,0,0,0,.17.85,2.25,2.25,0,0,0,.45.67,1.94,1.94,0,0,0,.66.45,2.13,2.13,0,0,0,1.63,0,2,2,0,0,0,.66-.45,2.27,2.27,0,0,0,.45-.67,2,2,0,0,0,.17-.83,2,2,0,0,0-.17-.81,2.27,2.27,0,0,0-.45-.67,2,2,0,0,0-.66-.45,2.14,2.14,0,0,0-1.62,0,2,2,0,0,0-.66.45,2.29,2.29,0,0,0-.45.66,1.91,1.91,0,0,0-.17.8m-3.41,0a4.45,4.45,0,0,1,.41-1.9,4.65,4.65,0,0,1,1.14-1.53,5.42,5.42,0,0,1,1.74-1,6.28,6.28,0,0,1,2.21-.37,6.39,6.39,0,0,1,2.19.37,5.41,5.41,0,0,1,1.75,1,4.56,4.56,0,0,1,1.15,1.55,4.74,4.74,0,0,1,.41,2,4.67,4.67,0,0,1-.42,2A4.74,4.74,0,0,1,198,36.27a5.13,5.13,0,0,1-1.76,1,6.73,6.73,0,0,1-2.22.36,6.43,6.43,0,0,1-2.18-.36,5,5,0,0,1-1.72-1A4.71,4.71,0,0,1,189,34.69a5,5,0,0,1-.41-2"/><path class="cls-8" d="M201.45,28.14h3.23V29.3A3.55,3.55,0,0,1,206,28.22a4.2,4.2,0,0,1,1.59-.28,4,4,0,0,1,1.65.31,3.3,3.3,0,0,1,1.17.88,2.54,2.54,0,0,1,.54,1,5.41,5.41,0,0,1,.14,1.3V37.3h-3.23V32.68a5,5,0,0,0-.1-1.1,1.36,1.36,0,0,0-.35-.67,1.24,1.24,0,0,0-.48-.3,1.82,1.82,0,0,0-.57-.09,1.6,1.6,0,0,0-1.26.49,2,2,0,0,0-.44,1.4V37.3h-3.23Z"/></g><polygon class="cls-8" points="132.93 45.26 132.93 55.76 137.13 55.76 137.13 58.72 129.43 58.72 129.43 45.26 132.93 45.26"/><g class="cls-2"><path class="cls-8" d="M141.63,54.12a2.14,2.14,0,0,0,.6,1.5,2,2,0,0,0,.66.45,2.13,2.13,0,0,0,.83.16,2.09,2.09,0,0,0,.81-.16,2,2,0,0,0,.66-.45,2.33,2.33,0,0,0,.45-.66,1.93,1.93,0,0,0,.17-.8,2,2,0,0,0-.17-.81,2.31,2.31,0,0,0-.45-.67,2,2,0,0,0-.66-.45,2.09,2.09,0,0,0-.81-.16,2.13,2.13,0,0,0-.83.16,2,2,0,0,0-.66.45,2.2,2.2,0,0,0-.44.65,1.94,1.94,0,0,0-.16.79m4.07-4.55h3.25v9.16H145.7v-1a3.39,3.39,0,0,1-2.8,1.3,4.56,4.56,0,0,1-1.84-.36,4.42,4.42,0,0,1-1.46-1,4.73,4.73,0,0,1-1-1.55,5.31,5.31,0,0,1-.35-1.95,5.16,5.16,0,0,1,.34-1.87,4.78,4.78,0,0,1,.95-1.54,4.39,4.39,0,0,1,3.3-1.43,3.73,3.73,0,0,1,2.84,1.2Z"/><path class="cls-8" d="M151.14,49.57h3.23v1.16a3.55,3.55,0,0,1,1.34-1.08,4.2,4.2,0,0,1,1.59-.28,4,4,0,0,1,1.65.31,3.29,3.29,0,0,1,1.17.88,2.54,2.54,0,0,1,.54,1,5.41,5.41,0,0,1,.14,1.3v5.82h-3.23V54.1a5,5,0,0,0-.1-1.1,1.36,1.36,0,0,0-.35-.67,1.23,1.23,0,0,0-.48-.3,1.81,1.81,0,0,0-.57-.09,1.6,1.6,0,0,0-1.26.49,2,2,0,0,0-.44,1.4v4.89h-3.23Z"/><path class="cls-8" d="M166,54.12a2.14,2.14,0,0,0,.6,1.5,2,2,0,0,0,.66.45,2.13,2.13,0,0,0,.83.16,2.08,2.08,0,0,0,.81-.16,2,2,0,0,0,.66-.45A2.33,2.33,0,0,0,170,55a1.94,1.94,0,0,0,.17-.8,2,2,0,0,0-.17-.81,2.3,2.3,0,0,0-.45-.67,2,2,0,0,0-.66-.45,2.13,2.13,0,0,0-1.62,0,1.94,1.94,0,0,0-.66.45,2.36,2.36,0,0,0-.45.65,1.87,1.87,0,0,0-.17.8m4.07-10.21h3.25V58.72h-3.25v-1a3.39,3.39,0,0,1-2.8,1.3,4.45,4.45,0,0,1-1.84-.37,4.54,4.54,0,0,1-1.46-1A4.73,4.73,0,0,1,163,56a5.46,5.46,0,0,1,0-3.79,4.67,4.67,0,0,1,.94-1.54,4.44,4.44,0,0,1,3.32-1.43,3.73,3.73,0,0,1,2.84,1.2Z"/><path class="cls-8" d="M181.58,51.92a3.77,3.77,0,0,0-1.75-.46,1.32,1.32,0,0,0-.72.18.55.55,0,0,0-.28.48.63.63,0,0,0,0,.26.45.45,0,0,0,.2.19,1.7,1.7,0,0,0,.45.16l.78.18a3.71,3.71,0,0,1,2,1,2.43,2.43,0,0,1,.66,1.76,3.19,3.19,0,0,1-.32,1.45,3.08,3.08,0,0,1-.89,1.08,4.25,4.25,0,0,1-1.37.68,6.15,6.15,0,0,1-1.77.24A7.18,7.18,0,0,1,174.94,58l1.18-2.28a4.6,4.6,0,0,0,2.57.93,1.27,1.27,0,0,0,.73-.2.59.59,0,0,0,.29-.5.82.82,0,0,0,0-.29.48.48,0,0,0-.19-.21,1.46,1.46,0,0,0-.42-.18l-.72-.17a4.14,4.14,0,0,1-2.1-.9,2.23,2.23,0,0,1-.6-1.65,3.24,3.24,0,0,1,.29-1.38,2.86,2.86,0,0,1,.82-1,3.85,3.85,0,0,1,1.29-.66,5.78,5.78,0,0,1,1.69-.23,7.67,7.67,0,0,1,2.95.59Z"/></g><polygon class="cls-8" points="129.43 80.14 129.43 66.69 132.93 66.69 139.4 74.91 139.4 66.69 142.88 66.69 142.88 80.14 139.4 80.14 132.93 71.92 132.93 80.14 129.43 80.14"/><g class="cls-2"><path class="cls-8" d="M152.3,74.24a2,2,0,0,0-.66-1.09,2,2,0,0,0-2.44,0,1.78,1.78,0,0,0-.6,1.11Zm-3.78,1.87q0,2.09,2,2.09a1.75,1.75,0,0,0,1.59-.86h3.12q-.95,3.14-4.73,3.14a6.22,6.22,0,0,1-2.12-.35,4.75,4.75,0,0,1-1.65-1,4.41,4.41,0,0,1-1.06-1.54,5.12,5.12,0,0,1-.37-2,5.66,5.66,0,0,1,.36-2.06,4.35,4.35,0,0,1,1-1.56,4.52,4.52,0,0,1,1.6-1,6,6,0,0,1,2.12-.35,5.91,5.91,0,0,1,2.09.35A4.23,4.23,0,0,1,154,72a4.38,4.38,0,0,1,1,1.62,6.4,6.4,0,0,1,.34,2.15v.34Z"/></g><polygon class="cls-8" points="160.89 73.68 160.89 80.14 157.66 80.14 157.66 73.68 156.59 73.68 156.59 70.99 157.66 70.99 157.66 68.24 160.89 68.24 160.89 70.99 162.73 70.99 162.73 73.68 160.89 73.68"/><polygon class="cls-8" points="166.44 70.99 168.64 75.81 170.92 70.99 172.96 70.99 175.24 75.95 177.54 70.99 181.13 70.99 176.35 80.14 174.19 80.14 171.9 75.13 169.72 80.14 167.53 80.14 162.83 70.99 166.44 70.99"/><g class="cls-2"><path class="cls-8" d="M184.83,75.52a2.08,2.08,0,0,0,.17.85,2.25,2.25,0,0,0,.45.67,1.94,1.94,0,0,0,.66.45,2.13,2.13,0,0,0,1.62,0,2,2,0,0,0,.66-.45,2.27,2.27,0,0,0,.45-.67,2,2,0,0,0,.17-.83,2,2,0,0,0-.17-.81,2.27,2.27,0,0,0-.45-.67,2,2,0,0,0-.66-.45,2.14,2.14,0,0,0-1.62,0,2,2,0,0,0-.66.45,2.29,2.29,0,0,0-.45.66,1.92,1.92,0,0,0-.17.8m-3.41,0a4.45,4.45,0,0,1,.41-1.9A4.65,4.65,0,0,1,183,72.05a5.42,5.42,0,0,1,1.74-1,6.28,6.28,0,0,1,2.2-.37,6.39,6.39,0,0,1,2.19.37,5.4,5.4,0,0,1,1.75,1A4.56,4.56,0,0,1,192,73.59a4.74,4.74,0,0,1,.41,2,4.65,4.65,0,0,1-.42,2,4.73,4.73,0,0,1-1.15,1.55,5.14,5.14,0,0,1-1.76,1,6.72,6.72,0,0,1-2.22.36,6.43,6.43,0,0,1-2.18-.36,5,5,0,0,1-1.72-1,4.71,4.71,0,0,1-1.13-1.58,5,5,0,0,1-.41-2"/><path class="cls-8" d="M194.27,71h3.23v1.5a3.72,3.72,0,0,1,1.27-1.26,3.42,3.42,0,0,1,1.75-.44h.28a2,2,0,0,1,.35,0v3.09a3.06,3.06,0,0,0-1.39-.32,2.08,2.08,0,0,0-1.69.67,3,3,0,0,0-.56,2v3.93h-3.23Z"/></g><polygon class="cls-8" points="202.59 65.33 202.59 80.15 205.82 80.15 205.82 76.42 209.37 80.15 213.91 80.15 209.05 75.22 213.64 70.99 209.21 70.99 205.82 74.29 205.82 65.33 202.59 65.33"/></g></g></svg>