<svg xmlns="http://www.w3.org/2000/svg" viewBox="0 0 135 53.8"><defs><style>.cls-1{fill:#fff;}</style></defs><g id="Capa_2" data-name="Capa 2"><g id="Capa_1-2" data-name="Capa 1"><path class="cls-1" d="M26.9,0A26.9,26.9,0,1,0,53.8,26.9,27,27,0,0,0,26.9,0m0,2.5A24.3,24.3,0,1,1,2.6,26.8,24.33,24.33,0,0,1,26.9,2.5"/><path class="cls-1" d="M17,9.7a23.42,23.42,0,0,0,2.7,8.5,23.22,23.22,0,0,0,6,6.6A23.42,23.42,0,0,0,23,16.3h0a24.78,24.78,0,0,0-6-6.6M27.9,28.6l-1.5-.9A24.15,24.15,0,0,1,18,19.2,25,25,0,0,1,14.8,7.6V5.8l1.5.9a24.15,24.15,0,0,1,8.4,8.5,25,25,0,0,1,3.2,11.6Z"/><path class="cls-1" d="M7.1,26.8a23,23,0,0,0,8.7,1.9,23,23,0,0,0,8.7-1.9,23,23,0,0,0-8.7-1.9,23,23,0,0,0-8.7,1.9m8.7,4a25.87,25.87,0,0,1-11.6-3l-1.5-.9L4.2,26a25.87,25.87,0,0,1,11.6-3,25.87,25.87,0,0,1,11.6,3l1.5.9-1.5.9a27.43,27.43,0,0,1-11.6,3"/><path class="cls-1" d="M25.7,28.9a21.92,21.92,0,0,0-6,6.6A21.61,21.61,0,0,0,17,44a21.92,21.92,0,0,0,6-6.6,24.62,24.62,0,0,0,2.7-8.5M14.8,47.7V45.9A25.25,25.25,0,0,1,18,34.3a25.06,25.06,0,0,1,8.4-8.5l1.5-.9v1.8a25.25,25.25,0,0,1-3.2,11.6,25.06,25.06,0,0,1-8.4,8.5Z"/><path class="cls-1" d="M28,28.9a23.42,23.42,0,0,0,2.7,8.5,23.22,23.22,0,0,0,6,6.6A23.42,23.42,0,0,0,34,35.5a20.75,20.75,0,0,0-6-6.6M38.9,47.7l-1.5-.9A24.15,24.15,0,0,1,29,38.3a25,25,0,0,1-3.2-11.6V24.9l1.5.9a24.15,24.15,0,0,1,8.4,8.5,25,25,0,0,1,3.2,11.6Z"/><path class="cls-1" d="M29.2,26.8a23,23,0,0,0,8.7,1.9,23,23,0,0,0,8.7-1.9,23,23,0,0,0-8.7-1.9,23,23,0,0,0-8.7,1.9m8.7,3.9a25.87,25.87,0,0,1-11.6-3l-1.5-.9,1.5-.9a25.87,25.87,0,0,1,11.6-3,25.87,25.87,0,0,1,11.6,3l1.5.9-1.5.9a25.87,25.87,0,0,1-11.6,3"/><path class="cls-1" d="M36.7,9.7a21.92,21.92,0,0,0-6,6.6A21.61,21.61,0,0,0,28,24.8a21.92,21.92,0,0,0,6-6.6h0a21.61,21.61,0,0,0,2.7-8.5M25.8,28.6V26.8A25.25,25.25,0,0,1,29,15.2a25.06,25.06,0,0,1,8.4-8.5l1.5-.9V7.6a25.25,25.25,0,0,1-3.2,11.6,25.06,25.06,0,0,1-8.4,8.5Z"/><path class="cls-1" d="M70.2,13l-.9-2.5h0L68.4,13Zm0-4.2,2.6,6.8H71.2l-.5-1.5H68.1l-.5,1.5H66.1l2.6-6.8Z"/><path class="cls-1" d="M74.8,14.4c.1.1.1.2.2.3a.37.37,0,0,0,.3.1H76c.1,0,.2-.1.3-.1a.22.22,0,0,0,.2-.2.37.37,0,0,0,.1-.3.51.51,0,0,0-.4-.5c-.3-.1-.7-.2-1.1-.3a1.42,1.42,0,0,1-.6-.2c-.2-.1-.4-.1-.5-.2s-.3-.2-.4-.4a1.08,1.08,0,0,1-.1-.6,1.88,1.88,0,0,1,.2-.8,1.21,1.21,0,0,1,.5-.5,1.45,1.45,0,0,1,.7-.2c.3,0,.5-.1.8-.1a2.2,2.2,0,0,1,.8.1c.3.1.5.1.7.3a1.21,1.21,0,0,1,.5.5,1.88,1.88,0,0,1,.2.8H76.6a.46.46,0,0,0-.3-.5,1.27,1.27,0,0,0-.6-.1h-.2c-.1,0-.2,0-.2.1s-.1.1-.2.1-.1.1-.1.2a.37.37,0,0,0,.1.3c.1.1.2.1.4.2a4.33,4.33,0,0,0,.5.1c.2,0,.4.1.6.1a1.42,1.42,0,0,1,.6.2c.2.1.4.1.5.3s.3.2.4.4a1.08,1.08,0,0,1,.1.6,1.88,1.88,0,0,1-.2.8,1.21,1.21,0,0,1-.5.5c-.2.1-.5.2-.7.3a2.2,2.2,0,0,1-.8.1,2,2,0,0,1-.8-.1,4.88,4.88,0,0,1-.7-.3,1.21,1.21,0,0,1-.5-.5,1.88,1.88,0,0,1-.2-.8h1.3c-.4.1-.4.2-.3.3"/><path class="cls-1" d="M80.5,13.7a.76.76,0,0,0,.2.5.78.78,0,0,0,.4.4,1.85,1.85,0,0,0,1.2,0,.78.78,0,0,0,.4-.4c.1-.2.2-.3.2-.5s.1-.4.1-.6a1.27,1.27,0,0,0-.1-.6c-.1-.2-.1-.4-.2-.5s-.2-.3-.4-.4a1.85,1.85,0,0,0-1.2,0,.78.78,0,0,0-.4.4.76.76,0,0,0-.2.5c0,.2-.1.4-.1.6a1.76,1.76,0,0,1,.1.6m-1.2-1.6a2.1,2.1,0,0,1,1.3-1.3,3.59,3.59,0,0,1,1.1-.2,4.25,4.25,0,0,1,1.1.2,2.1,2.1,0,0,1,1.3,1.3,3.59,3.59,0,0,1,.2,1.1,3.59,3.59,0,0,1-.2,1.1,2.1,2.1,0,0,1-1.3,1.3,3.59,3.59,0,0,1-1.1.2,4.25,4.25,0,0,1-1.1-.2,2.1,2.1,0,0,1-1.3-1.3,3.59,3.59,0,0,1-.2-1.1,3.59,3.59,0,0,1,.2-1.1"/><path class="cls-1" d="M88,11.6a4.33,4.33,0,0,0-.5.1c-.1.1-.3.2-.4.4s-.2.3-.2.5-.1.4-.1.6a.75.75,0,0,0,.1.5.76.76,0,0,0,.2.5c.1.1.2.3.3.4a.75.75,0,0,0,.5.1,1.14,1.14,0,0,0,.8-.3.91.91,0,0,0,.3-.7h1.3a1.87,1.87,0,0,1-.8,1.5,3,3,0,0,1-1.6.5,3,3,0,0,1-1-.2,2.1,2.1,0,0,1-1.3-1.3,3.55,3.55,0,0,1-.2-1,4.25,4.25,0,0,1,.2-1.1,2.62,2.62,0,0,1,.5-.9,5.55,5.55,0,0,1,.8-.6,3.59,3.59,0,0,1,1.1-.2,2,2,0,0,1,.8.1,4.88,4.88,0,0,1,.7.3,2.65,2.65,0,0,1,.5.6,1.88,1.88,0,0,1,.2.8H88.9c0-.3-.3-.6-.9-.6"/><path class="cls-1" d="M93,15.6H91.6v-5H93ZM91.6,8.8H93V9.9H91.6Z"/><path class="cls-1" d="M97.6,13.2c-.1.1-.1.1-.2.1s-.2.1-.3.1h-.6a.37.37,0,0,0-.3.1c-.1,0-.2.1-.3.1l-.2.2c0,.1-.1.2-.1.3a.37.37,0,0,0,.1.3c0,.1.1.1.2.2s.2.1.3.1h.3c.3,0,.5,0,.6-.1s.3-.2.3-.3a.6.6,0,0,0,.1-.4v-.7Zm-3.1-1a1.88,1.88,0,0,1,.2-.8,1.21,1.21,0,0,1,.5-.5c.2-.1.5-.2.7-.3a2.2,2.2,0,0,1,.8-.1,2.49,2.49,0,0,1,.8.1,1.45,1.45,0,0,1,.7.2,1,1,0,0,1,.5.4,1.45,1.45,0,0,1,.2.7v3.2a4.33,4.33,0,0,0,.1.5H97.6c0-.1,0-.2-.1-.2v-.2a2.18,2.18,0,0,1-.8.5,2.77,2.77,0,0,1-.9.1,1.7,1.7,0,0,1-.7-.1c-.2-.1-.4-.1-.5-.3a1,1,0,0,1-.4-.5,1.48,1.48,0,0,1-.1-.7c0-.3.1-.5.1-.7s.2-.3.4-.4.3-.2.5-.2a1.27,1.27,0,0,1,.6-.1c.2,0,.4-.1.6-.1a.75.75,0,0,0,.5-.1.52.52,0,0,0,.4-.2.37.37,0,0,0,.1-.3c0-.1,0-.3-.1-.3a.22.22,0,0,0-.2-.2c-.1,0-.2-.1-.3-.1h-.3a.85.85,0,0,0-.6.2c-.2.1-.2.3-.3.6h-1Z"/><path class="cls-1" d="M102.9,11.6a4.33,4.33,0,0,0-.5.1c-.1.1-.3.2-.4.4s-.2.3-.2.5-.1.4-.1.6a.75.75,0,0,0,.1.5.76.76,0,0,0,.2.5c.1.1.2.3.3.4a.75.75,0,0,0,.5.1,1.14,1.14,0,0,0,.8-.3.91.91,0,0,0,.3-.7h1.3a1.87,1.87,0,0,1-.8,1.5,3,3,0,0,1-1.6.5,3,3,0,0,1-1-.2,2.1,2.1,0,0,1-1.3-1.3,3.55,3.55,0,0,1-.2-1,4.25,4.25,0,0,1,.2-1.1,2.62,2.62,0,0,1,.5-.9,5.55,5.55,0,0,1,.8-.6,3.59,3.59,0,0,1,1.1-.2,2,2,0,0,1,.8.1,4.88,4.88,0,0,1,.7.3,2.65,2.65,0,0,1,.5.6,1.88,1.88,0,0,1,.2.8h-1.3c0-.3-.3-.6-.9-.6"/><path class="cls-1" d="M107.9,15.6h-1.4v-5h1.4Zm-1.3-6.8H108V9.9h-1.4Z"/><path class="cls-1" d="M112.2,8.1l-1,1.7h.9l1.6-1.7Zm-1.4,5.6a.76.76,0,0,0,.2.5.78.78,0,0,0,.4.4,1.85,1.85,0,0,0,1.2,0,.78.78,0,0,0,.4-.4c.1-.2.2-.3.2-.5s.1-.4.1-.6a1.27,1.27,0,0,0-.1-.6c-.1-.2-.1-.4-.2-.5s-.2-.3-.4-.4a1.85,1.85,0,0,0-1.2,0,.78.78,0,0,0-.4.4.76.76,0,0,0-.2.5c0,.2-.1.4-.1.6s0,.5.1.6m-1.3-1.6a2.1,2.1,0,0,1,1.3-1.3,3.59,3.59,0,0,1,1.1-.2,4.25,4.25,0,0,1,1.1.2,2.1,2.1,0,0,1,1.3,1.3,3.59,3.59,0,0,1,.2,1.1,3.59,3.59,0,0,1-.2,1.1,2.1,2.1,0,0,1-1.3,1.3,3.59,3.59,0,0,1-1.1.2,4.25,4.25,0,0,1-1.1-.2,2.1,2.1,0,0,1-1.3-1.3,3.59,3.59,0,0,1-.2-1.1,3.59,3.59,0,0,1,.2-1.1"/><path class="cls-1" d="M117.1,10.7v.7h0a1.34,1.34,0,0,1,.7-.6,3.09,3.09,0,0,1,.8-.2,2.22,2.22,0,0,1,.9.1,2.09,2.09,0,0,1,.6.4l.3.6a2.2,2.2,0,0,1,.1.8v3.1h-1.4V12.8a2,2,0,0,0-.2-.9.78.78,0,0,0-.7-.3,1,1,0,0,0-.8.3c-.2.2-.2.6-.2,1.1v2.6h-1.4v-5h1.3Z"/><polygon class="cls-1" points="66.2 23.1 66.2 21.8 71.8 21.8 71.8 23.1 69.8 23.1 69.8 28.7 68.3 28.7 68.3 23.1 66.2 23.1"/><path class="cls-1" d="M73.4,23.7v.9h0c.1-.2.1-.3.3-.4s.2-.2.4-.3a.76.76,0,0,1,.5-.2.9.9,0,0,1,.5-.1h.3v1.3h-.5c-.2,0-.5,0-.6.1a1.38,1.38,0,0,0-.4.3.76.76,0,0,0-.2.5c0,.2-.1.4-.1.6v2.2H72.1v-5h1.3Z"/><path class="cls-1" d="M79.4,26.2c-.1.1-.1.1-.2.1s-.2.1-.3.1h-.6a.37.37,0,0,0-.3.1c-.1,0-.2.1-.3.1l-.2.2c0,.1-.1.2-.1.3a.37.37,0,0,0,.1.3c0,.1.1.1.2.2s.2.1.3.1h.3c.3,0,.5,0,.6-.1s.3-.2.3-.3a.6.6,0,0,0,.1-.4v-.7Zm-3.2-1a1.88,1.88,0,0,1,.2-.8,1.21,1.21,0,0,1,.5-.5c.2-.1.5-.2.7-.3a2.2,2.2,0,0,1,.8-.1,2.49,2.49,0,0,1,.8.1,1.45,1.45,0,0,1,.7.2,1,1,0,0,1,.5.4,1.45,1.45,0,0,1,.2.7v3.2a4.33,4.33,0,0,0,.1.5H79.3c0-.1,0-.2-.1-.2v-.2a2.18,2.18,0,0,1-.8.5,2.77,2.77,0,0,1-.9.1,1.7,1.7,0,0,1-.7-.1c-.2-.1-.4-.1-.5-.3a1,1,0,0,1-.4-.5,1.48,1.48,0,0,1-.1-.7,1.48,1.48,0,0,1,.1-.7.78.78,0,0,1,.4-.4c.2-.1.3-.2.5-.2a1.27,1.27,0,0,1,.6-.1c.2,0,.4-.1.6-.1a.75.75,0,0,0,.5-.1.52.52,0,0,0,.4-.2.37.37,0,0,0,.1-.3c0-.1,0-.3-.1-.3a.22.22,0,0,0-.2-.2c-.1,0-.2-.1-.3-.1h-.3a.85.85,0,0,0-.6.2c-.2.1-.2.3-.3.6h-1Z"/><path class="cls-1" d="M83.5,27.4c.1.1.1.2.2.3a.37.37,0,0,0,.3.1h.7c.1,0,.2-.1.3-.1a.22.22,0,0,0,.2-.2.37.37,0,0,0,.1-.3.51.51,0,0,0-.4-.5c-.3-.1-.7-.2-1.1-.3a1.42,1.42,0,0,1-.6-.2c-.2-.1-.4-.1-.5-.2s-.3-.2-.4-.4a1.08,1.08,0,0,1-.1-.6,1.88,1.88,0,0,1,.2-.8,1.21,1.21,0,0,1,.5-.5,1.45,1.45,0,0,1,.7-.2c.3,0,.5-.1.8-.1a2.2,2.2,0,0,1,.8.1c.3.1.5.1.7.3a1.21,1.21,0,0,1,.5.5,1.88,1.88,0,0,1,.2.8H85.3a.46.46,0,0,0-.3-.5,1.27,1.27,0,0,0-.6-.1h-.2c-.1,0-.2,0-.2.1s-.1.1-.2.1-.1.1-.1.2a.37.37,0,0,0,.1.3c.1.1.2.1.4.2a4.33,4.33,0,0,0,.5.1c.2,0,.4.1.6.1a1.42,1.42,0,0,1,.6.2c.2.1.4.1.5.3s.3.2.4.4a1.08,1.08,0,0,1,.1.6,1.88,1.88,0,0,1-.2.8,1.21,1.21,0,0,1-.5.5c-.2.1-.5.2-.7.3a2.2,2.2,0,0,1-.8.1,2,2,0,0,1-.8-.1,4.88,4.88,0,0,1-.7-.3,1.21,1.21,0,0,1-.5-.5,1.88,1.88,0,0,1-.2-.8h1.3c-.4.1-.4.2-.3.3"/><path class="cls-1" d="M89.4,21.8v2.6h0a1.34,1.34,0,0,1,.7-.6,2.35,2.35,0,0,1,.8-.2,2.22,2.22,0,0,1,.9.1,2.09,2.09,0,0,1,.6.4l.3.6a2.2,2.2,0,0,1,.1.8v3.1H91.4V25.8a2,2,0,0,0-.2-.9.78.78,0,0,0-.7-.3,1,1,0,0,0-.8.3c-.2.2-.2.6-.2,1.1v2.6H88.1V21.8Z"/><path class="cls-1" d="M97.5,28.7V28h0a1.34,1.34,0,0,1-.7.6,3.09,3.09,0,0,1-.8.2,2.22,2.22,0,0,1-.9-.1,2.09,2.09,0,0,1-.6-.4l-.3-.6a2.2,2.2,0,0,1-.1-.8V23.8h1.4v2.8a2,2,0,0,0,.2.9.78.78,0,0,0,.7.3,1,1,0,0,0,.8-.3c.2-.2.2-.6.2-1.1V23.8h1.4v5H97.5Z"/><path class="cls-1" d="M101.6,23.7v.7h0a1.7,1.7,0,0,1,.6-.6,2.39,2.39,0,0,1,.9-.2,2.92,2.92,0,0,1,.9.2.9.9,0,0,1,.6.6,1.7,1.7,0,0,1,.6-.6,2.27,2.27,0,0,1,1.6-.1l.6.3a.92.92,0,0,1,.4.6,2,2,0,0,1,.1.8v3.3h-1.4V25.4a.6.6,0,0,0-.1-.4c-.1-.1-.1-.2-.3-.3a.75.75,0,0,0-.5-.1.9.9,0,0,0-.5.1l-.3.3a.6.6,0,0,0-.1.4v3.3h-1.4V25.5a.6.6,0,0,0-.1-.4c0-.1-.1-.2-.2-.3a.75.75,0,0,0-.5-.1h-.3c-.1,0-.2.1-.3.2l-.3.3a1.08,1.08,0,0,0-.1.6v2.9h-1.4v-5Z"/><path class="cls-1" d="M112.6,26.2c-.1.1-.1.1-.2.1s-.2.1-.3.1h-.6a.37.37,0,0,0-.3.1c-.1,0-.2.1-.3.1l-.2.2c0,.1-.1.2-.1.3a.37.37,0,0,0,.1.3c0,.1.1.1.2.2s.2.1.3.1h.3c.3,0,.5,0,.6-.1s.3-.2.3-.3a.6.6,0,0,0,.1-.4v-.7Zm-3.2-1a1.88,1.88,0,0,1,.2-.8,1.21,1.21,0,0,1,.5-.5c.2-.1.5-.2.7-.3a2.2,2.2,0,0,1,.8-.1,2.49,2.49,0,0,1,.8.1,1.45,1.45,0,0,1,.7.2,1,1,0,0,1,.5.4,1.45,1.45,0,0,1,.2.7v3.2a4.33,4.33,0,0,0,.1.5h-1.4c0-.1,0-.2-.1-.2v-.2a2.18,2.18,0,0,1-.8.5,2.77,2.77,0,0,1-.9.1,1.7,1.7,0,0,1-.7-.1c-.2-.1-.4-.1-.5-.3a1,1,0,0,1-.4-.5,1.48,1.48,0,0,1-.1-.7,1.48,1.48,0,0,1,.1-.7.78.78,0,0,1,.4-.4c.2-.1.3-.2.5-.2a1.27,1.27,0,0,1,.6-.1c.2,0,.4-.1.6-.1a.75.75,0,0,0,.5-.1.52.52,0,0,0,.4-.2.37.37,0,0,0,.1-.3c0-.1,0-.3-.1-.3a.22.22,0,0,0-.2-.2c-.1,0-.2-.1-.3-.1h-.3a.85.85,0,0,0-.6.2c-.2.1-.2.3-.3.6h-1Z"/><path class="cls-1" d="M116.8,23.7v.7h0a1.34,1.34,0,0,1,.7-.6,3.09,3.09,0,0,1,.8-.2,2.22,2.22,0,0,1,.9.1,2.09,2.09,0,0,1,.6.4l.3.6a2.2,2.2,0,0,1,.1.8v3.1h-1.4V25.8a2,2,0,0,0-.2-.9.78.78,0,0,0-.7-.3,1,1,0,0,0-.8.3c-.2.2-.2.6-.2,1.1v2.6h-1.4v-5h1.3Z"/><path class="cls-1" d="M124,24.6a4.33,4.33,0,0,0-.5.1c-.1.1-.3.2-.4.4s-.2.3-.2.5-.1.4-.1.6a.75.75,0,0,0,.1.5.76.76,0,0,0,.2.5c.1.1.2.3.3.4a.75.75,0,0,0,.5.1,1.14,1.14,0,0,0,.8-.3.91.91,0,0,0,.3-.7h1.3a1.87,1.87,0,0,1-.8,1.5,3,3,0,0,1-1.6.5,3,3,0,0,1-1-.2,2.1,2.1,0,0,1-1.3-1.3,3.55,3.55,0,0,1-.2-1,4.25,4.25,0,0,1,.2-1.1,2.62,2.62,0,0,1,.5-.9,5.55,5.55,0,0,1,.8-.6,3.59,3.59,0,0,1,1.1-.2,2,2,0,0,1,.8.1,4.88,4.88,0,0,1,.7.3,2.65,2.65,0,0,1,.5.6,1.88,1.88,0,0,1,.2.8h-1.3c0-.3-.3-.6-.9-.6"/><path class="cls-1" d="M129,28.7h-1.4v-5H129Zm-1.3-6.9h1.4v1.1h-1.4Z"/><path class="cls-1" d="M133.7,26.2c-.1.1-.1.1-.2.1s-.2.1-.3.1h-.6a.37.37,0,0,0-.3.1c-.1,0-.2.1-.3.1l-.2.2c0,.1-.1.2-.1.3a.37.37,0,0,0,.1.3c0,.1.1.1.2.2s.2.1.3.1h.3c.3,0,.5,0,.6-.1s.3-.2.3-.3a.6.6,0,0,0,.1-.4v-.7Zm-3.2-1a1.88,1.88,0,0,1,.2-.8,1.21,1.21,0,0,1,.5-.5c.2-.1.5-.2.7-.3a2.2,2.2,0,0,1,.8-.1,2.49,2.49,0,0,1,.8.1,1.45,1.45,0,0,1,.7.2,1,1,0,0,1,.5.4,1.45,1.45,0,0,1,.2.7v3.2a4.33,4.33,0,0,0,.1.5h-1.4c0-.1,0-.2-.1-.2v-.2a2.18,2.18,0,0,1-.8.5,2.77,2.77,0,0,1-.9.1,1.7,1.7,0,0,1-.7-.1c-.2-.1-.4-.1-.5-.3a1,1,0,0,1-.4-.5,1.48,1.48,0,0,1-.1-.7,1.48,1.48,0,0,1,.1-.7.78.78,0,0,1,.4-.4c.2-.1.3-.2.5-.2a1.27,1.27,0,0,1,.6-.1c.2,0,.4-.1.6-.1a.75.75,0,0,0,.5-.1.52.52,0,0,0,.4-.2.37.37,0,0,0,.1-.3c0-.1,0-.3-.1-.3a.22.22,0,0,0-.2-.2c-.1,0-.2-.1-.3-.1h-.3a.85.85,0,0,0-.6.2c-.2.1-.2.3-.3.6h-1Z"/><path class="cls-1" d="M68.4,43.2a1.8,1.8,0,0,1-1.1.3h-.8V42.4h.8a.52.52,0,0,0,.4-.2.6.6,0,0,0,.1-.4.37.37,0,0,0-.1-.3L66,36.8h1.4l1.1,3.4h0l1.1-3.4H71l-2.1,5.6a1,1,0,0,1-.5.8"/><polygon class="cls-1" points="76.8 34.9 79.7 39.4 79.7 39.4 79.7 34.9 81.1 34.9 81.1 41.7 79.6 41.7 76.8 37.1 76.8 37.1 76.8 41.7 75.3 41.7 75.3 34.9 76.8 34.9"/><path class="cls-1" d="M85.9,39.3c-.1.1-.1.1-.2.1s-.2.1-.3.1h-.6a.37.37,0,0,0-.3.1c-.1,0-.2.1-.3.1l-.2.2c0,.1-.1.2-.1.3a.37.37,0,0,0,.1.3c0,.1.1.1.2.2s.2.1.3.1h.3c.3,0,.5,0,.6-.1s.3-.2.3-.3.1-.2.1-.4v-.7Zm-3.2-1a1.88,1.88,0,0,1,.2-.8,1.21,1.21,0,0,1,.5-.5c.2-.1.5-.2.7-.3a2.2,2.2,0,0,1,.8-.1,2.49,2.49,0,0,1,.8.1,1.45,1.45,0,0,1,.7.2,1,1,0,0,1,.5.4,1.45,1.45,0,0,1,.2.7v3.2a4.33,4.33,0,0,0,.1.5H85.8c0-.1,0-.2-.1-.2v-.2a2.18,2.18,0,0,1-.8.5,2.77,2.77,0,0,1-.9.1,1.7,1.7,0,0,1-.7-.1c-.2-.1-.4-.1-.5-.3a1,1,0,0,1-.4-.5,1.48,1.48,0,0,1-.1-.7c0-.3.1-.5.1-.7s.2-.3.4-.4.3-.2.5-.2a1.27,1.27,0,0,1,.6-.1c.2,0,.4-.1.6-.1a.75.75,0,0,0,.5-.1.52.52,0,0,0,.4-.2.37.37,0,0,0,.1-.3c0-.1,0-.3-.1-.3a.22.22,0,0,0-.2-.2c-.1,0-.2-.1-.3-.1h-.3a.85.85,0,0,0-.6.2c-.2.1-.2.3-.3.6h-1Z"/><path class="cls-1" d="M91.5,36.7v.9h-1v2.5a.75.75,0,0,0,.1.5c.1.1.2.1.5.1h.4v1.1H90.1a.76.76,0,0,1-.5-.2c-.1-.1-.3-.2-.3-.4a1.27,1.27,0,0,1-.1-.6V37.7h-.8v-.9h.8V35.3h1.4v1.5h.9Z"/><path class="cls-1" d="M96,41.7V41h0a1.34,1.34,0,0,1-.7.6,3.09,3.09,0,0,1-.8.2,2.22,2.22,0,0,1-.9-.1,2.09,2.09,0,0,1-.6-.4l-.3-.6a2.2,2.2,0,0,1-.1-.8V36.8H94v2.8a2,2,0,0,0,.2.9.78.78,0,0,0,.7.3,1,1,0,0,0,.8-.3c.2-.2.2-.6.2-1.1V36.8h1.4v5H96Z"/><path class="cls-1" d="M100.1,36.7v.9h0c.1-.2.1-.3.3-.4s.2-.2.4-.3a.76.76,0,0,1,.5-.2.9.9,0,0,1,.5-.1h.3v1.3h-.5c-.2,0-.5,0-.6.1a1.38,1.38,0,0,0-.4.3.76.76,0,0,0-.2.5c0,.2-.1.4-.1.6v2.2H98.9v-5h1.2Z"/><path class="cls-1" d="M106.1,39.3c-.1.1-.1.1-.2.1s-.2.1-.3.1H105a.37.37,0,0,0-.3.1c-.1,0-.2.1-.3.1l-.2.2c0,.1-.1.2-.1.3a.37.37,0,0,0,.1.3c0,.1.1.1.2.2s.2.1.3.1h.3c.3,0,.5,0,.6-.1s.3-.2.3-.3.1-.2.1-.4v-.7Zm-3.1-1a1.88,1.88,0,0,1,.2-.8,1.21,1.21,0,0,1,.5-.5c.2-.1.5-.2.7-.3a2.2,2.2,0,0,1,.8-.1,2.49,2.49,0,0,1,.8.1,1.45,1.45,0,0,1,.7.2,1,1,0,0,1,.5.4,1.45,1.45,0,0,1,.2.7v3.2a4.33,4.33,0,0,0,.1.5h-1.4c0-.1,0-.2-.1-.2v-.2a2.18,2.18,0,0,1-.8.5,2.77,2.77,0,0,1-.9.1,1.7,1.7,0,0,1-.7-.1c-.2-.1-.4-.1-.5-.3a1,1,0,0,1-.4-.5,2.5,2.5,0,0,1,0-1.4.78.78,0,0,1,.4-.4c.2-.1.3-.2.5-.2a1.27,1.27,0,0,1,.6-.1c.2,0,.4-.1.6-.1a.75.75,0,0,0,.5-.1.52.52,0,0,0,.4-.2.37.37,0,0,0,.1-.3c0-.1,0-.3-.1-.3a.22.22,0,0,0-.2-.2c-.1,0-.2-.1-.3-.1h-.3a.85.85,0,0,0-.6.2c-.2.1-.2.3-.3.6h-1Z"/><rect class="cls-1" x="109" y="34.9" width="1.4" height="6.8"/><path class="cls-1" d="M114.9,37.9a.91.91,0,0,0-.7-.3.75.75,0,0,0-.5.1c-.1.1-.3.2-.3.3s-.1.2-.2.3-.1.2-.1.3h2.2a1.61,1.61,0,0,0-.4-.7m-1.5,2.6a1.22,1.22,0,0,0,.9.3,1.45,1.45,0,0,0,.7-.2c.2-.1.3-.3.4-.4h1.2a2.54,2.54,0,0,1-.9,1.3,2.3,2.3,0,0,1-1.4.4,4.25,4.25,0,0,1-1.1-.2,2.1,2.1,0,0,1-1.3-1.3,3.59,3.59,0,0,1-.2-1.1,3,3,0,0,1,.2-1,2.18,2.18,0,0,1,.5-.8,5.55,5.55,0,0,1,.8-.6,3.55,3.55,0,0,1,1-.2,3.59,3.59,0,0,1,1.1.2,2.7,2.7,0,0,1,.8.7,3.55,3.55,0,0,1,.4.9,4.1,4.1,0,0,1,.1,1.1h-3.5a1.22,1.22,0,0,0,.3.9"/><polygon class="cls-1" points="120.2 37.8 117.8 37.8 117.8 36.7 122 36.7 122 37.8 119.4 40.7 122.2 40.7 122.2 41.7 117.6 41.7 117.6 40.7 120.2 37.8"/><path class="cls-1" d="M126.5,39.3c-.1.1-.1.1-.2.1s-.2.1-.3.1h-.6a.37.37,0,0,0-.3.1c-.1,0-.2.1-.3.1l-.2.2c0,.1-.1.2-.1.3a.37.37,0,0,0,.1.3c0,.1.1.1.2.2s.2.1.3.1h.3c.3,0,.5,0,.6-.1s.3-.2.3-.3.1-.2.1-.4v-.7Zm-3.2-1a1.88,1.88,0,0,1,.2-.8,1.21,1.21,0,0,1,.5-.5c.2-.1.5-.2.7-.3a2.2,2.2,0,0,1,.8-.1,2.49,2.49,0,0,1,.8.1,1.45,1.45,0,0,1,.7.2,1,1,0,0,1,.5.4,1.45,1.45,0,0,1,.2.7v3.2a4.33,4.33,0,0,0,.1.5h-1.4c0-.1,0-.2-.1-.2v-.2a2.18,2.18,0,0,1-.8.5,2.77,2.77,0,0,1-.9.1,1.7,1.7,0,0,1-.7-.1c-.2-.1-.4-.1-.5-.3a1,1,0,0,1-.4-.5,2.5,2.5,0,0,1,0-1.4.78.78,0,0,1,.4-.4c.2-.1.3-.2.5-.2a1.27,1.27,0,0,1,.6-.1c.2,0,.4-.1.6-.1a.75.75,0,0,0,.5-.1.52.52,0,0,0,.4-.2.37.37,0,0,0,.1-.3c0-.1,0-.3-.1-.3a.22.22,0,0,0-.2-.2c-.1,0-.2-.1-.3-.1h-.3a.85.85,0,0,0-.6.2,1.63,1.63,0,0,0-.3.6h-1Z"/></g></g></svg>