<svg xmlns="http://www.w3.org/2000/svg" height="14.884mm" width="28.27mm" version="1.1" viewBox="0 0 28.269634 14.884082">
 <g transform="translate(-88.675 -141.39)">
  <g transform="matrix(.35278 0 0 -.35278 -297.89 269.28)">
   <g transform="translate(1175.8 330.62)">
    <path d="m0 0h-2.446v-4.593c0-0.621 0.032-1.444 0.097-2.467h-0.042l-3.697 7.06h-3.586v-10.16h2.433v4.58c0 0.593-0.044 1.452-0.132 2.578h0.062l3.711-7.158h3.6zm-16.578-2.092c0.677 0 1.185-0.242 1.526-0.726 0.34-0.484 0.511-1.233 0.511-2.248 0-1.01-0.168-1.754-0.504-2.231s-0.851-0.716-1.546-0.716c-1.367 0-2.05 0.983-2.05 2.947 0 1.983 0.687 2.974 2.063 2.974m3.677 0.925c-0.834 0.884-2.06 1.327-3.677 1.327-1.612 0-2.841-0.446-3.686-1.338-0.846-0.892-1.268-2.183-1.268-3.874 0-1.71 0.425-3.012 1.275-3.906s2.072-1.341 3.666-1.341c1.616 0 2.844 0.445 3.683 1.334 0.838 0.89 1.258 2.189 1.258 3.899 0 1.714-0.417 3.013-1.251 3.899m-10.594 1.167h-2.759v-10.16h2.759zm-6.828-2.245h2.474v2.245h-7.7v-2.245h2.481v-7.915h2.745zm-6.821 2.245h-2.759v-10.16h2.759zm-4.527-10.16v2.217h-3.912v7.943h-2.745v-10.16zm-14.131 4.156c0.421 1.593 0.694 2.661 0.817 3.203 0.122 0.543 0.204 0.932 0.246 1.168 0.046-0.255 0.143-0.677 0.289-1.265s0.269-1.068 0.371-1.438l0.438-1.668zm6.233-4.156-3.356 10.202h-3.662l-3.315-10.202h3.016l0.514 1.904h3.301l0.5-1.904zm-16.139 8.068c0.676 0 1.185-0.242 1.525-0.726 0.341-0.484 0.511-1.233 0.511-2.248 0-1.01-0.168-1.754-0.504-2.231s-0.851-0.716-1.546-0.716c-1.367 0-2.05 0.983-2.05 2.947 0 1.983 0.688 2.974 2.064 2.974m3.676 0.925c-0.834 0.884-2.06 1.327-3.676 1.327-1.612 0-2.841-0.446-3.687-1.338-0.845-0.892-1.268-2.183-1.268-3.874 0-1.71 0.425-3.012 1.275-3.906s2.072-1.341 3.666-1.341c1.617 0 2.844 0.445 3.683 1.334 0.838 0.89 1.258 2.189 1.258 3.899 0 1.714-0.417 3.013-1.251 3.899m-11.9-1.119c0.375-0.121 0.75-0.269 1.125-0.445l0.841 2.161c-1.001 0.477-2.05 0.716-3.148 0.716-1.005 0-1.88-0.214-2.623-0.643-0.744-0.429-1.314-1.041-1.71-1.838s-0.594-1.721-0.594-2.773c0-1.682 0.409-2.967 1.226-3.857 0.818-0.889 1.994-1.334 3.527-1.334 1.071 0 2.03 0.188 2.877 0.563v2.321c-0.426-0.176-0.85-0.326-1.271-0.452-0.422-0.125-0.858-0.187-1.307-0.187-1.487 0-2.231 0.977-2.231 2.932 0 0.941 0.184 1.679 0.55 2.214 0.365 0.535 0.875 0.802 1.528 0.802 0.431 0 0.834-0.06 1.21-0.18" fill="#fff"/>
   </g>
   <g transform="translate(1169 338.86)">
    <path d="m0 0c-0.789-0.981-2.028-1.472-3.719-1.472h-1.239v11.535h1.62c1.521 0 2.655-0.455 3.401-1.366 0.747-0.911 1.12-2.31 1.12-4.197 0-2.019-0.394-3.519-1.183-4.5m4.261 12.021c-1.799 1.69-4.35 2.535-7.655 2.535h-7.127v-20.591h6.662c3.427 0 6.087 0.929 7.979 2.788 1.892 1.86 2.838 4.508 2.838 7.944 0 3.193-0.9 5.634-2.697 7.324m-19.521 2.535h-4.958v-9.31c0-1.258 0.065-2.924 0.197-5h-0.085l-7.493 14.31h-7.267v-20.591h4.929v9.281c0 1.202-0.089 2.944-0.268 5.226h0.127l7.522-14.507h7.296zm-34.754-12.169c0.854 3.23 1.406 5.395 1.655 6.493 0.248 1.099 0.415 1.888 0.5 2.367 0.093-0.517 0.288-1.371 0.584-2.564 0.296-1.192 0.547-2.164 0.754-2.915l0.887-3.381zm12.634-8.422-6.803 20.676h-7.423l-6.718-20.676h6.112l1.043 3.859h6.69l1.014-3.859zm-22.303 0v4.493h-7.93v16.098h-5.563v-20.591z" fill="#fff"/>
   </g>
   <g transform="translate(1175.8 355.63)">
    <path d="m0 0v1.477h-2.606v5.291h-1.829v-6.768zm-9.414 2.768c0.281 1.062 0.462 1.773 0.544 2.134s0.137 0.621 0.164 0.778c0.031-0.17 0.096-0.45 0.193-0.842s0.18-0.712 0.247-0.959l0.292-1.111zm4.153-2.768-2.236 6.796h-2.44l-2.208-6.796h2.009l0.343 1.268h2.199l0.333-1.268zm-7.71 6.768h-1.63v-3.06c0-0.414 0.022-0.961 0.065-1.643h-0.028l-2.463 4.703h-2.388v-6.768h1.62v3.051c0 0.395-0.03 0.967-0.088 1.717h0.042l2.472-4.768h2.398zm-11.044-1.393c0.451 0 0.79-0.162 1.016-0.484 0.227-0.322 0.341-0.822 0.341-1.498 0-0.672-0.112-1.168-0.336-1.486-0.224-0.317-0.567-0.476-1.03-0.476-0.91 0-1.366 0.654-1.366 1.962 0 1.321 0.459 1.982 1.375 1.982m2.449 0.616c-0.555 0.589-1.372 0.884-2.449 0.884-1.074 0-1.892-0.297-2.455-0.891-0.564-0.595-0.846-1.455-0.846-2.581 0-1.139 0.284-2.006 0.85-2.602s1.38-0.894 2.442-0.894c1.077 0 1.895 0.297 2.454 0.889 0.558 0.593 0.838 1.459 0.838 2.597 0 1.142-0.278 2.008-0.834 2.598m-7.057 0.777h-1.838v-6.768h1.838zm-4.549-1.495h1.649v1.495h-5.13v-1.495h1.653v-5.273h1.828zm-7.964-2.505c0.281 1.062 0.462 1.773 0.544 2.134 0.081 0.361 0.137 0.621 0.164 0.778 0.031-0.17 0.095-0.45 0.192-0.842s0.18-0.712 0.248-0.959l0.292-1.111zm4.152-2.768-2.236 6.796h-2.439l-2.209-6.796h2.009l0.343 1.268h2.199l0.333-1.268zm-7.71 6.768h-1.629v-3.06c0-0.414 0.021-0.961 0.064-1.643h-0.027l-2.463 4.703h-2.389v-6.768h1.62v3.051c0 0.395-0.029 0.967-0.088 1.717h0.042l2.472-4.768h2.398zm-11.126-1.384h0.361c0.626 0 0.939-0.233 0.939-0.699 0-0.565-0.319-0.847-0.958-0.847h-0.342zm0.463-2.921 1.435-2.463h2.073l-1.971 2.949c0.765 0.429 1.148 1.035 1.148 1.819 0 1.334-0.92 2-2.76 2h-2.217v-6.768h1.829v2.463zm-3.572-0.972h-2.19v1.277h2.028v1.468h-2.028v1.065h2.19v1.467h-4.018v-6.768h4.018zm-6.729 3.782h1.649v1.495h-5.13v-1.495h1.653v-5.273h1.828zm-4.543 1.495h-1.63v-3.06c0-0.414 0.022-0.961 0.065-1.643h-0.028l-2.463 4.703h-2.388v-6.768h1.62v3.051c0 0.395-0.03 0.967-0.088 1.717h0.042l2.472-4.768h2.398zm-8.002 0h-1.838v-6.768h1.838z" fill="#fff"/>
   </g>
  </g>
 </g>
</svg>
