<svg xmlns="http://www.w3.org/2000/svg" xmlns:xlink="http://www.w3.org/1999/xlink" viewBox="0 0 78.73 100.08"><defs><style>.a{fill:none;}.b{fill:#b2d7cf;}.c{clip-path:url(#a);}.d{fill:#727f34;}.e{fill:#e76456;}.f{fill:#ab453b;}.g{fill:#184b7d;}</style><clipPath id="a" transform="translate(0 0)"><rect class="a" width="78.73" height="100.08"/></clipPath></defs><title>Asset 2</title><rect class="b" x="26.94" y="-1.35" width="24.89" height="65.31" transform="translate(-8.85 45.61) rotate(-55)"/><g class="c"><path class="d" d="M24.7,10.29A12.44,12.44,0,1,1,10.29.19,12.44,12.44,0,0,1,24.7,10.29" transform="translate(0 0)"/></g><rect class="e" x="7.03" y="56.32" width="65.31" height="24.89" transform="translate(-32.27 35.2) rotate(-35)"/><g class="c"><path class="f" d="M14.91,75.37A12.44,12.44,0,1,1,.49,85.47,12.44,12.44,0,0,1,14.91,75.37" transform="translate(0 0)"/><path class="g" d="M78.73,50.09A12.44,12.44,0,1,1,66.28,37.64,12.44,12.44,0,0,1,78.73,50.09" transform="translate(0 0)"/></g></svg>