<svg xmlns="http://www.w3.org/2000/svg" xmlns:xlink="http://www.w3.org/1999/xlink" viewBox="0 0 40.92 40.92"><defs><style>.cls-1{fill:none;}.cls-2{fill:#e76456;}.cls-3{clip-path:url(#clip-path);}.cls-4{fill:#727f34;}.cls-5{fill:#efab61;}.cls-6{fill:#184b7d;}.cls-7{fill:#ab453b;}</style><clipPath id="clip-path" transform="translate(0)"><rect class="cls-1" width="40.92" height="40.92"/></clipPath></defs><title>Asset 3</title><g id="Layer_2" data-name="Layer 2"><g id="Layer_1-2" data-name="Layer 1"><rect class="cls-2" x="0.71" y="13.96" width="39.49" height="12.99" transform="translate(-8.47 20.46) rotate(-45)"/><g class="cls-3"><path class="cls-4" d="M29.83,11.09a6.5,6.5,0,1,1,9.19,0,6.5,6.5,0,0,1-9.19,0" transform="translate(0)"/><path class="cls-5" d="M1.9,39a6.5,6.5,0,1,1,9.19,0A6.5,6.5,0,0,1,1.9,39" transform="translate(0)"/></g><rect class="cls-6" x="13.96" y="0.71" width="12.99" height="39.49" transform="translate(-8.47 20.46) rotate(-45)"/><g class="cls-3"><path class="cls-2" d="M29.83,29.83a6.5,6.5,0,1,1,0,9.19,6.5,6.5,0,0,1,0-9.19" transform="translate(0)"/><path class="cls-7" d="M1.9,1.9a6.5,6.5,0,1,1,0,9.19,6.5,6.5,0,0,1,0-9.19" transform="translate(0)"/></g></g></g></svg>