<svg xmlns="http://www.w3.org/2000/svg" xmlns:xlink="http://www.w3.org/1999/xlink" viewBox="0 0 67.98 67.98"><defs><style>.cls-1{fill:none;}.cls-2{fill:#fff;}.cls-3{clip-path:url(#clip-path);}.cls-4{fill:#727f34;}.cls-5{fill:#efab61;}.cls-6{fill:#184b7d;}.cls-7{fill:#e76456;}.cls-8{fill:#ab453b;}</style><clipPath id="clip-path" transform="translate(0)"><rect class="cls-1" width="67.98" height="67.98"/></clipPath></defs><title>Asset 1</title><g id="Layer_2" data-name="Layer 2"><g id="Layer_1-2" data-name="Layer 1"><rect class="cls-2" x="1.18" y="23.2" width="65.61" height="21.59" transform="translate(-14.08 33.99) rotate(-45)"/><g class="cls-3"><path class="cls-4" d="M18.43,49.55a10.79,10.79,0,1,1-15.26,0,10.79,10.79,0,0,1,15.26,0" transform="translate(0)"/><path class="cls-5" d="M64.82,3.16a10.79,10.79,0,1,1-15.26,0,10.79,10.79,0,0,1,15.26,0" transform="translate(0)"/></g><rect class="cls-6" x="23.2" y="1.18" width="21.59" height="65.61" transform="translate(-14.08 33.99) rotate(-45)"/><g class="cls-3"><path class="cls-7" d="M18.43,18.43a10.79,10.79,0,1,1,0-15.26,10.79,10.79,0,0,1,0,15.26" transform="translate(0)"/><path class="cls-8" d="M64.82,64.82a10.79,10.79,0,1,1,0-15.26,10.79,10.79,0,0,1,0,15.26" transform="translate(0)"/></g></g></g></svg>