<svg xmlns="http://www.w3.org/2000/svg" xmlns:xlink="http://www.w3.org/1999/xlink" viewBox="0 0 80.01 102.09"><defs><style>.cls-1{fill:none;}.cls-2{fill:#184b7d;}.cls-3{clip-path:url(#clip-path);}.cls-4{fill:#e86557;}.cls-5{fill:#efac62;}.cls-6{fill:#b3d7d0;}.cls-7{fill:#727f34;}.cls-8{fill:#ab453b;}</style><clipPath id="clip-path" transform="translate(0 0)"><rect class="cls-1" width="80.01" height="102.09"/></clipPath></defs><title>Recurso 1</title><g id="Capa_2" data-name="Capa 2"><g id="Capa_1-2" data-name="Capa 1"><rect class="cls-2" x="8.26" y="85.57" width="63.49" height="16.52"/><g class="cls-3"><path class="cls-4" d="M16.52,93.83a8.26,8.26,0,1,1-8.26-8.26,8.26,8.26,0,0,1,8.26,8.26" transform="translate(0 0)"/><path class="cls-5" d="M80,93.83a8.26,8.26,0,1,1-8.26-8.26A8.26,8.26,0,0,1,80,93.83" transform="translate(0 0)"/></g><rect class="cls-5" x="31.69" y="8.26" width="16.52" height="56.91"/><g class="cls-3"><path class="cls-6" d="M40,16.52a8.26,8.26,0,1,1,8.26-8.26A8.26,8.26,0,0,1,40,16.52" transform="translate(0 0)"/></g><rect class="cls-6" x="33.66" y="41.46" width="43.35" height="16.52" transform="translate(-18.95 53.69) rotate(-45)"/><g class="cls-3"><path class="cls-7" d="M70.77,42.55A8.26,8.26,0,1,1,79,34.29a8.26,8.26,0,0,1-8.26,8.26" transform="translate(0 0)"/></g><rect class="cls-4" x="16.42" y="28.29" width="16.52" height="43.35" transform="translate(-28.1 32.08) rotate(-45)"/><g class="cls-3"><path class="cls-8" d="M17.5,34.53a8.26,8.26,0,1,1-8.26-8.26,8.26,8.26,0,0,1,8.26,8.26" transform="translate(0 0)"/><path class="cls-2" d="M40,73.43a8.26,8.26,0,1,1,8.26-8.26A8.26,8.26,0,0,1,40,73.43" transform="translate(0 0)"/></g></g></g></svg>