<svg xmlns="http://www.w3.org/2000/svg" version="1.1" viewBox="0 0 19.24 20.08">
 <defs>
  <style>.cls-1{stroke:#3c3c3b;stroke-linecap:round;stroke-miterlimit:10;stroke-width:1.28px;}.cls-2{fill:#3c3c3b;}</style>
 </defs>
 <title>Facebook</title>
 <rect stroke-width="1.28px" class="cls-1" width="19.24" stroke="#3c3c3b" stroke-linecap="round" stroke-miterlimit="10" y="0" x="0" height="20.08" fill="none"/>
 <path fill="#3c3c3b" class="cls-2" d="m10 8.62v0.68h2.15v1.39h-2.15v6.8h-1.71v-6.8h-1v-1.39h1v-0.63a2.74 2.74 0 0 1 0.78 -2.05 2.58 2.58 0 0 1 1.88 -0.76 2.94 2.94 0 0 1 2 0.82l-0.71 1.22a1.47 1.47 0 0 0 -1.06 -0.54 1.09 1.09 0 0 0 -0.86 0.35 1.35 1.35 0 0 0 -0.32 0.91z"/>
</svg>
