<svg xmlns="http://www.w3.org/2000/svg" xmlns:xlink="http://www.w3.org/1999/xlink" viewBox="0 0 29.13 37.66"><defs><style>.cls-1,.cls-3{fill:none;}.cls-2{clip-path:url(#clip-path);}.cls-3{stroke:#3c3c3b;stroke-linecap:round;stroke-miterlimit:10;stroke-width:3.03px;}.cls-4{fill:#3c3c3b;}</style><clipPath id="clip-path" transform="translate(0)"><rect class="cls-1" width="29.13" height="37.66"/></clipPath></defs><title>Asset 6</title><g id="Layer_2" data-name="Layer 2"><g id="Layer_1-2" data-name="Layer 1"><g class="cls-2"><path class="cls-3" d="M27.61,20s-1.72.49-2.28.66a14.15,14.15,0,0,1-4.24.7,13.3,13.3,0,0,1-4.24-.7l-4.58-1.55a13.19,13.19,0,0,0-8.48,0l-2.27.77V3L3.8,2.21a13.19,13.19,0,0,1,8.48,0l4.58,1.55a13.28,13.28,0,0,0,4.24.7,14.15,14.15,0,0,0,4.24-.7l2.28-.66V20ZM1.51,19.93V36.14" transform="translate(0)"/><path class="cls-4" d="M11.56,28V29H7.91v1.81h3.27v1H7.91V33.7h3.76v1.08H6.76V28Z" transform="translate(0)"/><path class="cls-4" d="M18.26,28h1.15v6.82H18.16l-3.87-5v5H13.15V28H14.3l4,5.1Z" transform="translate(0)"/></g></g></g></svg>