<svg xmlns="http://www.w3.org/2000/svg" xmlns:xlink="http://www.w3.org/1999/xlink" viewBox="0 0 19.26 26.25"><defs><style>.cls-1,.cls-3{fill:none;}.cls-2{clip-path:url(#clip-path);}.cls-3{stroke:#3c3c3b;stroke-linecap:round;stroke-miterlimit:10;stroke-width:2px;}.cls-4{font-size:8px;fill:#3c3c3b;font-family:Montserrat-Regular, Montserrat;}</style><clipPath id="clip-path"><rect class="cls-1" width="19.26" height="26.6"/></clipPath></defs><title>Asset 4</title><g id="Layer_2" data-name="Layer 2"><g id="Layer_1-2" data-name="Layer 1"><g class="cls-2"><path class="cls-3" d="M18.25,13.25l-1.51.44a9.37,9.37,0,0,1-2.8.46,8.8,8.8,0,0,1-2.8-.46l-3-1a8.72,8.72,0,0,0-5.61,0L1,13.18V2l1.51-.51a8.72,8.72,0,0,1,5.61,0l3,1a8.8,8.8,0,0,0,2.8.46,9.36,9.36,0,0,0,2.8-.46L18.26,2v11.2ZM1,13.18V23.9"/><text class="cls-4" transform="translate(4.76 24.25)">ES</text></g></g></g></svg>