<svg xmlns="http://www.w3.org/2000/svg" xmlns:xlink="http://www.w3.org/1999/xlink" viewBox="0 0 77.08 81.92"><defs><style>.cls-1{fill:none;}.cls-2{fill:#efab61;}.cls-3{clip-path:url(#clip-path);}.cls-4{fill:#b2d7cf;}.cls-5{fill:#727f34;}.cls-6{fill:#e76456;}.cls-7{fill:#ab453b;}.cls-8{fill:#184b7d;}</style><clipPath id="clip-path"><rect class="cls-1" width="77.08" height="81.92"/></clipPath></defs><title>Asset 5</title><g id="Layer_2" data-name="Layer 2"><g id="Layer_1-2" data-name="Layer 1"><rect class="cls-2" x="8.67" y="32.34" width="59.74" height="17.34"/><g class="cls-3"><path class="cls-4" d="M17.34,41a8.67,8.67,0,1,1-8.67-8.67A8.67,8.67,0,0,1,17.34,41"/></g><rect class="cls-4" x="43.52" y="2.12" width="17.34" height="45.51" transform="translate(-2.3 44.19) rotate(-45)"/><g class="cls-3"><path class="cls-5" d="M44.66,8.67A8.67,8.67,0,1,1,36,0a8.67,8.67,0,0,1,8.67,8.67"/></g><rect class="cls-6" x="29.69" y="48.38" width="45.51" height="17.34" transform="translate(-24.98 53.79) rotate(-45)"/><g class="cls-3"><path class="cls-7" d="M36.24,64.58a8.67,8.67,0,1,1-8.67,8.67,8.67,8.67,0,0,1,8.67-8.67"/><path class="cls-8" d="M77.08,41a8.67,8.67,0,1,1-8.67-8.67A8.67,8.67,0,0,1,77.08,41"/></g></g></g></svg>