<svg xmlns="http://www.w3.org/2000/svg" xmlns:xlink="http://www.w3.org/1999/xlink" viewBox="0 0 19.76 19.77"><defs><style>.cls-1{fill:none;}.cls-2{clip-path:url(#clip-path);}.cls-3{fill:#3c3c3b;}</style><clipPath id="clip-path" transform="translate(0)"><rect class="cls-1" width="19.76" height="19.77"/></clipPath></defs><title>Asset 1</title><g id="Layer_2" data-name="Layer 2"><g id="Layer_1-2" data-name="Layer 1"><g class="cls-2"><path class="cls-3" d="M2.78,13.65,6.09,17,1.42,18.32ZM14.12,2A2.59,2.59,0,0,1,16,1.2,2.71,2.71,0,0,1,17.84,2a2.61,2.61,0,0,1,0,3.68L17,6.48,13.28,2.82h0Zm-7,14.39L3.45,12.66l9-9v0l3.68,3.68ZM.57,19.77a.37.37,0,0,0,.17,0L6.81,18a1.78,1.78,0,0,0,.75-.43L18.65,6.45a3.78,3.78,0,0,0-5.34-5.34L2.23,12.19a1.79,1.79,0,0,0-.43.76L0,19a.6.6,0,0,0,.15.58.57.57,0,0,0,.41.17" transform="translate(0)"/></g></g></g></svg>