<svg xmlns="http://www.w3.org/2000/svg" xmlns:xlink="http://www.w3.org/1999/xlink" viewBox="0 0 73.79 55.34"><defs><style>.cls-1{fill:none;}.cls-2{clip-path:url(#clip-path);}.cls-3{fill:#fff;}</style><clipPath id="clip-path" transform="translate(0 0)"><rect class="cls-1" width="73.79" height="55.35"/></clipPath></defs><title>Recurso 1</title><g id="Capa_2" data-name="Capa 2"><g id="Capa_1-2" data-name="Capa 1"><g class="cls-2"><path class="cls-3" d="M30.44,18.79l16.43,8.88L30.44,36.58Zm-2-4.95a1.85,1.85,0,0,0-1.73,1.84v24a1.84,1.84,0,0,0,1.64,1.85,1.89,1.89,0,0,0,1.07-.2l22.14-12a1.85,1.85,0,0,0,0-3.26l-22.14-12a1.78,1.78,0,0,0-1-.23M12.91,3.69h48a9.16,9.16,0,0,1,9.22,9.22V42.43a9.17,9.17,0,0,1-9.22,9.23h-48a9.17,9.17,0,0,1-9.22-9.23V12.91a9.16,9.16,0,0,1,9.22-9.22m0-3.69A12.92,12.92,0,0,0,0,12.91V42.43A12.92,12.92,0,0,0,12.91,55.34h48A12.92,12.92,0,0,0,73.79,42.43V12.91A12.92,12.92,0,0,0,60.88,0Z" transform="translate(0 0)"/></g></g></g></svg>