<svg xmlns="http://www.w3.org/2000/svg" xmlns:xlink="http://www.w3.org/1999/xlink" viewBox="0 0 77.08 81.92"><defs><style>.cls-1{fill:none;}.cls-2{fill:#efab61;}.cls-3{clip-path:url(#clip-path);}.cls-4{fill:#b2d7cf;}.cls-5{fill:#727f34;}.cls-6{fill:#e76456;}.cls-7{fill:#ab453b;}.cls-8{fill:#184b7d;}</style><clipPath id="clip-path" transform="translate(0)"><rect class="cls-1" width="77.08" height="81.92"/></clipPath></defs><title>Asset 4</title><g id="Layer_2" data-name="Layer 2"><g id="Layer_1-2" data-name="Layer 1"><rect class="cls-2" x="8.67" y="32.24" width="59.74" height="17.34"/><g class="cls-3"><path class="cls-4" d="M59.74,40.91a8.67,8.67,0,1,1,8.67,8.67,8.67,8.67,0,0,1-8.67-8.67" transform="translate(0)"/></g><rect class="cls-4" x="16.22" y="34.3" width="17.34" height="45.51" transform="translate(-33.05 34.31) rotate(-45)"/><g class="cls-3"><path class="cls-5" d="M32.42,73.25a8.67,8.67,0,1,1,8.67,8.67,8.67,8.67,0,0,1-8.67-8.67" transform="translate(0)"/></g><rect class="cls-6" x="1.88" y="16.2" width="45.51" height="17.34" transform="translate(-10.37 24.7) rotate(-45)"/><g class="cls-3"><path class="cls-7" d="M40.83,17.34A8.67,8.67,0,1,1,49.5,8.67a8.67,8.67,0,0,1-8.67,8.67" transform="translate(0)"/><path class="cls-8" d="M0,40.91a8.67,8.67,0,1,1,8.67,8.67A8.67,8.67,0,0,1,0,40.91" transform="translate(0)"/></g></g></g></svg>