<svg xmlns="http://www.w3.org/2000/svg" version="1.1" viewBox="0 0 20.52 21.36">
 <defs>
  <style>.cls-1{stroke:#3c3c3b;stroke-linecap:round;stroke-miterlimit:10;stroke-width:1.28px;}.cls-2{fill:#3c3c3b;}</style>
 </defs>
 <title>Research Gate</title>
 <rect class="cls-1" height="20.08" width="19.24" stroke="#3c3c3b" stroke-linecap="round" stroke-miterlimit="10" y="0.64" x="0.64" stroke-width="1.28px" fill="none"/>
 <path fill="#3c3c3b" class="cls-2" d="m11.16 10.84a2.6 2.6 0 0 1 -1.94 2.79l2.35 3.26h-1.92l-2.14-3h-2v3h-1.51v-9h3.33a4.83 4.83 0 0 1 2.94 0.69 2.65 2.65 0 0 1 0.89 2.26zm-2 1.27a1.6 1.6 0 0 0 0.46 -1.28 1.36 1.36 0 0 0 -0.47 -1.21 3.15 3.15 0 0 0 -1.69 -0.33h-1.94v3.21h1.88a2.78 2.78 0 0 0 1.75 -0.39z"/>
 <path fill="#3c3c3b" class="cls-2" d="m16.44 10.08h0.88v1.79a2.72 2.72 0 0 1 -2.12 0.81 2.67 2.67 0 0 1 -1.94 -0.76 2.77 2.77 0 0 1 0 -3.87 2.65 2.65 0 0 1 1.92 -0.78 2.74 2.74 0 0 1 1.88 0.66l-0.47 0.67a1.83 1.83 0 0 0 -0.62 -0.36 2.33 2.33 0 0 0 -0.72 -0.1 1.85 1.85 0 0 0 -1.33 0.51 1.84 1.84 0 0 0 1.25 3.19 2.26 2.26 0 0 0 1.24 -0.32z"/>
</svg>
