<svg xmlns="http://www.w3.org/2000/svg" xmlns:xlink="http://www.w3.org/1999/xlink" viewBox="0 0 18.31 21.7"><defs><style>.cls-1{fill:none;}.cls-2{clip-path:url(#clip-path);}.cls-3{fill:#3c3c3b;}</style><clipPath id="clip-path" transform="translate(0 0)"><rect class="cls-1" width="18.31" height="21.7"/></clipPath></defs><title>Asset 2</title><g id="Layer_2" data-name="Layer 2"><g id="Layer_1-2" data-name="Layer 1"><g class="cls-2"><path class="cls-3" d="M6.31,2.06a.87.87,0,0,1,.87-.88h3.95a.87.87,0,0,1,.87.88v.59H6.31Zm7.94,17.21a1.37,1.37,0,0,1-1.37,1.25H5.43a1.37,1.37,0,0,1-1.37-1.25L2.84,3.83H15.48ZM.59,3.83H1.65L2.89,19.36A2.55,2.55,0,0,0,5.43,21.7h7.45a2.55,2.55,0,0,0,2.54-2.34L16.66,3.83h1.06a.59.59,0,0,0,0-1.18H13.18V2.06A2,2,0,0,0,11.13,0H7.18A2,2,0,0,0,5.13,2.06v.59H.59a.59.59,0,1,0,0,1.18" transform="translate(0 0)"/></g></g></g></svg>