<svg xmlns="http://www.w3.org/2000/svg" xmlns:xlink="http://www.w3.org/1999/xlink" viewBox="0 0 31.04 36.91"><defs><style>.cls-1,.cls-4{fill:none;}.cls-2{clip-path:url(#clip-path);}.cls-3{fill:#3c3c3b;}.cls-4{stroke:#3c3c3b;stroke-miterlimit:10;stroke-width:1.51px;}</style><clipPath id="clip-path" transform="translate(0 0)"><rect class="cls-1" width="31.04" height="36.92"/></clipPath></defs><title>Asset 7</title><g id="Layer_2" data-name="Layer 2"><g id="Layer_1-2" data-name="Layer 1"><g class="cls-2"><path class="cls-3" d="M28.84,34.33a1.38,1.38,0,0,1-1,.48H3.18a1.31,1.31,0,0,1-1-.47.3.3,0,0,1,0-.33l1.58-5.18c2.6-8,6.45-11.94,11.76-11.94.34,0,.67,0,1,0a9.54,9.54,0,0,1,1.15.18c3.68.79,6.53,3.72,8.62,8.89q.53,1.31,1,2.82h0L28.92,34a.33.33,0,0,1-.08.32m-.29-5.91a26.88,26.88,0,0,0-3.71-7.88,11.13,11.13,0,0,0-8.23-4.95c-.37,0-.74,0-1.12,0-6,0-10.24,4.21-13.05,12.89L.88,33.56a1.61,1.61,0,0,0,.18,1.54,2.64,2.64,0,0,0,2.12,1.06H27.81a2.7,2.7,0,0,0,2.11-1,1.69,1.69,0,0,0,.29-1.53Z" transform="translate(0 0)"/><path class="cls-4" d="M28.84,34.33a1.38,1.38,0,0,1-1,.48H3.18a1.31,1.31,0,0,1-1-.47.3.3,0,0,1,0-.33l1.58-5.18c2.6-8,6.45-11.94,11.76-11.94.34,0,.67,0,1,0a9.54,9.54,0,0,1,1.15.18c3.68.79,6.53,3.72,8.62,8.89q.53,1.31,1,2.82h0L28.92,34A.33.33,0,0,1,28.84,34.33Zm-.29-5.91a26.88,26.88,0,0,0-3.71-7.88,11.13,11.13,0,0,0-8.23-4.95c-.37,0-.74,0-1.12,0-6,0-10.24,4.21-13.05,12.89L.88,33.56a1.61,1.61,0,0,0,.18,1.54,2.64,2.64,0,0,0,2.12,1.06H27.81a2.7,2.7,0,0,0,2.11-1,1.69,1.69,0,0,0,.29-1.53Z" transform="translate(0 0)"/><path class="cls-3" d="M15.49,2.11a5.88,5.88,0,1,1,0,11.75A5.81,5.81,0,0,1,9.66,7.94a5.84,5.84,0,0,1,5.83-5.83m0,13.11a7.2,7.2,0,0,0,7.28-7.28,7.23,7.23,0,0,0-14.46,0,7.15,7.15,0,0,0,7.19,7.28" transform="translate(0 0)"/><path class="cls-4" d="M15.49,2.11a5.88,5.88,0,1,1,0,11.75A5.81,5.81,0,0,1,9.66,7.94,5.84,5.84,0,0,1,15.49,2.11Zm0,13.11a7.2,7.2,0,0,0,7.28-7.28,7.23,7.23,0,0,0-14.46,0A7.15,7.15,0,0,0,15.49,15.22Z" transform="translate(0 0)"/></g></g></g></svg>